<?xml version="1.0" encoding="utf-8"?>
<!-- Generator: Adobe Illustrator 28.0.0, SVG Export Plug-In . SVG Version: 6.00 Build 0)  -->
<svg version="1.1" id="Layer_1" xmlns="http://www.w3.org/2000/svg" xmlns:xlink="http://www.w3.org/1999/xlink" x="0px" y="0px"
	 viewBox="0 0 40 120" style="enable-background:new 0 0 40 120;" xml:space="preserve">
<style type="text/css">
	.st0{fill:#FFFFFF;}
</style>
<g>
	<g>
		<path class="st0" d="M5,0c11.7,0,23.3,0,35,0c0,38,0,76,0,114c-2.2-1.4-4.2-3.3-6.6-4.1c-4.8-1.7-9.2-3.8-11.4-8.7
			c-1-2.4-0.8-5.6-2.3-7.3c-2.5-2.8-3.2-5.6-2.9-9.2c0.1-1.6-1-3.3-1.6-5c0.6-0.9,1.3-2,1.9-3.2c0.7-1.3,1.3-2.6,1.9-3.8
			c-1-1-2.5-2-2.4-2.7c0.6-5-1.9-11.1-0.2-14.4c3.3-6.3-0.7-11.3-0.6-16.7c0.1-4-1.1-8.2,0-12.5C17,22,16,18.1,13.2,14.7
			c-0.9-1.1-2.1-2.4-2.1-3.7C11,6.1,8.8,2.7,5,0z"/>
		<path d="M5,0c3.8,2.7,6,6.1,6.1,11c0,1.2,1.2,2.6,2.1,3.7C16,18.1,17,22,15.9,26.4c-1.1,4.2,0.1,8.5,0,12.5
			c-0.1,5.4,3.9,10.4,0.6,16.7c-1.7,3.3,0.8,9.5,0.2,14.4c-0.1,0.7,1.5,1.7,2.4,2.7c-0.6,1.3-1.3,2.6-1.9,3.8
			c-0.6,1.1-1.3,2.2-1.9,3.2c0.6,1.7,1.8,3.4,1.6,5c-0.3,3.6,0.3,6.3,2.9,9.2c1.6,1.7,1.3,4.9,2.3,7.3c2.1,5,6.6,7,11.4,8.7
			c2.4,0.9,4.4,2.7,6.6,4.1c0,2,0,4,0,6c-2.3,0-4.7,0-7,0c-0.6-0.5-1.2-1.2-1.9-1.3c-4.8-0.5-9.5-1.3-12.5-5.8
			c-1.6-2.4-3.2-4.8-4.6-7.4c-2.1-3.9-4-7.8-6-11.7c-0.1-0.3-0.1-0.7,0-1c1.8-5.9-4.3-11.4-0.6-17.7c1.5-2.6,1.1-6.4,1.4-9.7
			c0.1-0.9-0.1-2.2-0.7-2.7c-3.9-3.2-1.6-6.9-0.9-10.5c0.2-1.3,0.1-2.6-0.1-3.9c-0.5-4.8-1.5-9.6-1.6-14.3c-0.1-3.8-0.9-8,2-11.5
			c0.3-0.4-1.1-2.1-1.7-3.2c-1-2-1.8-4.1-2.9-6.1C2.1,11.5,1,9.7,0,8c0-2.7,0-5.3,0-8C1.7,0,3.3,0,5,0z"/>
		<path class="st0" d="M0,8c1,1.7,2.1,3.5,3,5.2c1,2,1.9,4.1,2.9,6.1c0.5,1.1,2,2.9,1.7,3.2c-2.8,3.5-2,7.7-2,11.5
			c0.1,4.8,1,9.6,1.6,14.3c0.1,1.3,0.3,2.6,0.1,3.9c-0.6,3.6-3,7.2,0.9,10.5c0.6,0.5,0.8,1.8,0.7,2.7c-0.3,3.3,0.2,7.1-1.4,9.7
			C3.7,81.4,9.8,86.9,8,92.8c-0.1,0.3-0.1,0.7,0,1c2,3.9,3.9,7.9,6,11.7c1.4,2.5,3,5,4.6,7.4c3,4.4,7.6,5.2,12.5,5.8
			c0.7,0.1,1.2,0.9,1.9,1.3c-11,0-22,0-33,0C0,82.7,0,45.3,0,8z"/>
	</g>
</g>
</svg>
