<?xml version="1.0" encoding="utf-8"?>
<!-- Generator: Adobe Illustrator 28.0.0, SVG Export Plug-In . SVG Version: 6.00 Build 0)  -->
<svg version="1.1" id="Layer_1" xmlns="http://www.w3.org/2000/svg" xmlns:xlink="http://www.w3.org/1999/xlink" x="0px" y="0px"
	 viewBox="0 0 40 120" style="enable-background:new 0 0 40 120;" xml:space="preserve">
<style type="text/css">
	.st0{fill:#FFFFFF;}
</style>
<g>
	<g>
		<path class="st0" d="M6,0c11.3,0,22.7,0,34,0c0,38,0,76,0,114c-1.6-1.3-3.1-2.7-4.7-3.9c-2.8-2-6-3.5-8.4-5.8
			C13.4,91.3,9.1,74.3,8.3,56.7c-0.5-11.3,1.9-22.8,3.2-35.5c2.3,2.2,3.2,3.1,4.1,4c2,2,3.9,4.7,7,1.7c3-3,1.5-5.7-1.2-8
			C16.2,14.4,10.6,10.3,8.9,3C8.6,1.8,7,1,6,0z"/>
		<path d="M6,0c1,1,2.6,1.8,2.9,3c1.8,7.3,7.3,11.4,12.5,15.9c2.7,2.3,4.2,5,1.2,8c-3,3-5,0.3-7-1.7c-0.9-0.9-1.9-1.8-4.1-4
			c-1.2,12.7-3.7,24.2-3.2,35.5c0.8,17.6,5.1,34.6,18.6,47.6c2.4,2.3,5.6,3.8,8.4,5.8c1.7,1.2,3.1,2.6,4.7,3.9c0,2,0,4,0,6
			c-2.3,0-4.7,0-7,0c-0.4-0.5-0.6-1.3-1.1-1.6C14.7,109.2,7,93.6,3,75.6C1.9,70.4,1,65.2,0,60c0-6,0-12,0-18
			c1.3-6.6,2.5-13.2,4-19.7c0.9-3.9,1.6-7.4-0.8-11.3C0.9,7.3-0.2,2.9,5,0C5.3,0,5.7,0,6,0z"/>
		<path class="st0" d="M0,60c1,5.2,1.9,10.4,3,15.6c4,18.1,11.7,33.6,28.9,42.9c0.5,0.3,0.8,1,1.1,1.6c-11,0-22,0-33,0
			C0,100,0,80,0,60z"/>
		<path class="st0" d="M5,0c-5.2,2.9-4.1,7.3-1.8,11c2.5,3.9,1.7,7.4,0.8,11.3C2.5,28.8,1.3,35.4,0,42C0,28,0,14,0,0
			C1.7,0,3.3,0,5,0z"/>
	</g>
</g>
</svg>
