<?xml version="1.0" encoding="utf-8"?>
<!-- Generator: Adobe Illustrator 28.0.0, SVG Export Plug-In . SVG Version: 6.00 Build 0)  -->
<svg version="1.1" id="Layer_1" xmlns="http://www.w3.org/2000/svg" xmlns:xlink="http://www.w3.org/1999/xlink" x="0px" y="0px"
	 viewBox="0 0 40 120" style="enable-background:new 0 0 40 120;" xml:space="preserve">
<style type="text/css">
	.st0{fill:#FFFFFF;}
</style>
<g>
	<g>
		<path class="st0" d="M1,120c-0.3-0.5-1-1-1-1.5C0,79,0,39.5,0,0c10.4,0,20.7,0,31,0c-5.6,10.2-6.6,21.5-6.8,32.8
			c-0.1,7.1-3.3,11-8.8,14.1c-2.4,1.4-5,2.5-7.5,3.7c0.2,0.5,0.3,1.1,0.5,1.6c3.1-0.4,6.3-0.8,8.7-1.1c0,8.1,0.6,16.6-0.2,24.9
			c-0.7,7.4-2.4,14.8-5,21.7C9,105.4,4.7,112.6,1,120z"/>
		<path class="st0" d="M40,1c0,39.7,0,79.3,0,119c-10.7,0-21.3,0-32,0c1.3-1.7,2.8-3.2,4-5c13.9-21,14.2-44.7,14.6-68.2
			c2.2-3.6,4.6-7.3,5.3-11.3c1.3-6.9,1-14.1,2.4-21C35.2,9.8,38,5.5,40,1z"/>
		<path d="M40,1c-2,4.5-4.8,8.8-5.8,13.5c-1.4,6.9-1.1,14.1-2.4,21c-0.7,4-3.2,7.7-5.3,11.3C26.2,70.3,25.9,94,12,115
			c-1.2,1.8-2.6,3.3-4,5c-2.3,0-4.7,0-7,0c3.7-7.4,8-14.6,10.9-22.3c2.6-6.9,4.2-14.4,5-21.7C17.6,67.6,17,59.2,17,51
			c-2.4,0.3-5.5,0.7-8.7,1.1c-0.2-0.5-0.3-1.1-0.5-1.6c2.5-1.2,5.1-2.4,7.5-3.7c5.5-3.1,8.7-7,8.8-14.1C24.4,21.5,25.4,10.2,31,0
			C34,0.3,37,0.7,40,1z"/>
	</g>
</g>
</svg>
