<?xml version="1.0" encoding="utf-8"?>
<!-- Generator: Adobe Illustrator 28.0.0, SVG Export Plug-In . SVG Version: 6.00 Build 0)  -->
<svg version="1.1" id="Layer_1" xmlns="http://www.w3.org/2000/svg" xmlns:xlink="http://www.w3.org/1999/xlink" x="0px" y="0px"
	 viewBox="0 0 40 120" style="enable-background:new 0 0 40 120;" xml:space="preserve">
<style type="text/css">
	.st0{fill:#FFFFFF;}
</style>
<g>
	<g>
		<path class="st0" d="M0,114C0,76,0,38,0,0c11.7,0,23.4,0,35,0c-2,2.7-4.2,5.2-5.9,8c-1.4,2.4-1.7,5.5-3.2,7.8
			c-2.4,3.5-2.4,7-1.6,11c0.6,3.1,1.1,6.4,0.7,9.5c-0.5,4.4-2.7,8.7-2.8,13c-0.1,4.4,4.3,8.8-0.1,13.3c-0.2,0.2,0.2,1,0.4,1.3
			c2.7,3.5,1.3,6.4-1.7,8.9c1.4,2.5,2.7,4.8,3.8,6.8c-0.6,1.9-1.2,3.7-1.6,5.5c-1.2,4.8-1.4,10-3.6,14.3c-2.6,5-6.8,9-12.9,10.5
			C4.2,110.5,2.2,112.6,0,114z"/>
		<path d="M0,114c2.2-1.4,4.2-3.5,6.6-4.1c6.1-1.5,10.3-5.5,12.9-10.5c2.2-4.2,2.4-9.5,3.6-14.3c0.4-1.8,1-3.6,1.6-5.5
			c-1.1-2-2.4-4.3-3.8-6.8c3-2.5,4.4-5.3,1.7-8.9c-0.3-0.4-0.6-1.2-0.4-1.3c4.4-4.5,0.1-8.9,0.1-13.3c0.1-4.4,2.2-8.6,2.8-13
			c0.4-3.1-0.1-6.4-0.7-9.5c-0.8-3.9-0.8-7.4,1.6-11c1.5-2.3,1.8-5.4,3.2-7.8C30.8,5.2,33,2.7,35,0c1.7,0,3.3,0,5,0c0,2.7,0,5.3,0,8
			c-0.5,0.1-1.3,0-1.4,0.2c-2.1,4.7-1.6,10.5-6.2,14.1c-0.1,0.1-0.1,0.3,0,0.4c3,3.4,2.1,7.6,2.1,11.4c0,4.6-0.6,9.3-1.6,13.8
			c-0.4,1.8-1.2,2.8-0.1,5c1.5,3.1,2.7,6.8-0.8,9.9c-0.6,0.6-0.1,2.6,0,3.9c0.6,5.2,1.6,10.4,1.8,15.6c0.1,3.1-1.1,6.3-1.7,9.5
			c-0.2,1.1-0.2,2.3-0.7,3.3c-2,3.9-4.7,7.6-6,11.7C23,114,17.8,117,11.1,118.4c-1.4,0.3-2.7,1-4.1,1.6c-2.3,0-4.7,0-7,0
			C0,118,0,116,0,114z"/>
		<path class="st0" d="M7,120c1.4-0.5,2.7-1.3,4.1-1.6c6.7-1.5,11.9-4.4,14.2-11.6c1.3-4.1,4.1-7.8,6-11.7c0.5-1,0.5-2.2,0.7-3.3
			c0.6-3.2,1.8-6.3,1.7-9.5c-0.2-5.2-1.2-10.4-1.8-15.6c-0.2-1.3-0.7-3.3,0-3.9c3.5-3.2,2.3-6.8,0.8-9.9c-1.1-2.1-0.2-3.2,0.1-5
			c1-4.5,1.6-9.2,1.6-13.8c0-3.8,0.9-8-2.1-11.4c-0.1-0.1,0-0.3,0-0.4c4.6-3.6,4.1-9.4,6.2-14.1C38.7,8,39.5,8.1,40,8
			c0,37.3,0,74.7,0,112C29,120,18,120,7,120z"/>
	</g>
</g>
</svg>
