<?xml version="1.0" encoding="utf-8"?>
<!-- Generator: Adobe Illustrator 28.0.0, SVG Export Plug-In . SVG Version: 6.00 Build 0)  -->
<svg version="1.1" id="Layer_1" xmlns="http://www.w3.org/2000/svg" xmlns:xlink="http://www.w3.org/1999/xlink" x="0px" y="0px"
	 viewBox="0 0 40 120" style="enable-background:new 0 0 40 120;" xml:space="preserve">
<style type="text/css">
	.st0{fill:#FFFFFF;}
</style>
<g>
	<g>
		<path class="st0" d="M9,0c10.3,0,20.7,0,31,0c0,38.7,0,77.3,0,116c0,1.3-0.6,2.7-1,4c-0.4-0.9-0.6-1.8-1.1-2.6
			C28.4,102.5,22,86.6,23,68.5c0.3-6,0-12.1,0-17.4c2.5,0.3,5.6,0.7,8.7,1.1c0.1-0.5,0.3-1,0.4-1.4c-2.8-1.5-5.9-2.5-8.2-4.5
			c-3-2.6-6.3-5.6-7.6-9.1c-1.5-4.2-1.2-9.1-1.2-13.7C14.9,15.1,12.6,7.4,9,0z"/>
		<path class="st0" d="M32,120c-10.7,0-21.3,0-32,0C0,80.3,0,40.7,0,1c1.3,2,3.4,3.8,3.8,6c1.7,9,3.3,18,4,27
			c0.4,5.4,2.3,9.4,5.8,11.9c0.5,8.9,1.2,17.3,1.4,25.7C15.3,89.6,20.5,105.9,32,120z"/>
		<path d="M32,120c-11.5-14.1-16.6-30.4-17-48.4c-0.2-8.4-0.9-16.8-1.4-25.7c-3.5-2.5-5.3-6.5-5.8-11.9c-0.8-9.1-2.3-18.1-4-27
			C3.4,4.8,1.3,3,0,1c3-0.3,6-0.7,9-1c3.6,7.4,5.9,15.1,6.1,23.5c0.1,4.6-0.3,9.5,1.2,13.7c1.3,3.5,4.6,6.5,7.6,9.1
			c2.3,2,5.5,3,8.2,4.5c-0.1,0.5-0.3,1-0.4,1.4c-3.1-0.4-6.1-0.8-8.7-1.1c0,5.3,0.3,11.4,0,17.4c-0.9,18.1,5.5,34,14.9,48.9
			c0.5,0.8,0.8,1.7,1.1,2.6C36.7,120,34.3,120,32,120z"/>
	</g>
</g>
</svg>
