<?xml version="1.0" encoding="utf-8"?>
<!-- Generator: Adobe Illustrator 28.0.0, SVG Export Plug-In . SVG Version: 6.00 Build 0)  -->
<svg version="1.1" id="Layer_1" xmlns="http://www.w3.org/2000/svg" xmlns:xlink="http://www.w3.org/1999/xlink" x="0px" y="0px"
	 viewBox="0 0 40 120" style="enable-background:new 0 0 40 120;" xml:space="preserve">
<style type="text/css">
	.st0{fill:#FFFFFF;}
</style>
<g>
	<g>
		<path class="st0" d="M0,114C0,76,0,38,0,0c11.4,0,22.7,0,34,0c-1,1.2-2.6,2.1-3,3.5c-1.9,5.6-5.1,10.1-10.2,13.3
			c-1.5,1-3.3,2.4-3.7,3.9c-0.6,1.9-0.4,4.4,0.6,6c0.4,0.7,4,0.6,5.2-0.4c1.6-1.1,2.3-3.5,3.3-5.3c0.7,0.5,1.4,1.1,2,1.6
			c1.3,9,3,18,3.6,27.1c0.8,11.2-1.4,22.2-5.2,32.7c-4,11.1-9.8,21-20.7,27C3.9,110.7,2,112.5,0,114z"/>
		<path d="M0,114c2-1.5,3.9-3.3,6-4.5c10.8-6,16.7-15.9,20.7-27c3.8-10.5,6-21.5,5.2-32.7c-0.7-9.1-2.4-18.1-3.6-27.1
			c-0.7-0.5-1.4-1.1-2-1.6c-1.1,1.8-1.8,4.2-3.3,5.3c-1.3,0.9-4.8,1.1-5.2,0.4c-1-1.6-1.1-4.2-0.6-6c0.5-1.5,2.2-2.9,3.7-3.9
			c5.1-3.2,8.3-7.7,10.2-13.3c0.5-1.4,2-2.3,3-3.5c0.3,0,0.7,0,1,0c3.4,2.4,5.1,5,2.5,9.3c-2.5,4-3,8.3-1.6,13.1
			c1.9,6.4,2.8,13.1,4.1,19.6c0,6,0,12,0,18c-0.7,3.9-1.2,7.9-2,11.8c-3.1,15.2-8.2,29.3-20.2,39.9c-3.4,3-7.1,5.5-10.7,8.3
			c-2.3,0-4.7,0-7,0C0,118,0,116,0,114z"/>
		<path class="st0" d="M7,120c3.6-2.8,7.3-5.3,10.7-8.3C29.7,101.1,34.9,87,38,71.8c0.8-3.9,1.4-7.9,2-11.8c0,19.9,0,39.8,0,60
			C29,120,18,120,7,120z"/>
		<path class="st0" d="M40,42c-1.3-6.6-2.2-13.3-4.1-19.6c-1.4-4.8-0.9-9.1,1.6-13.1C40.1,5,38.4,2.4,35,0c1.7,0,3.3,0,5,0
			C40,14,40,28,40,42z"/>
	</g>
</g>
</svg>
