<?xml version="1.0" encoding="utf-8"?>
<!-- Generator: Adobe Illustrator 28.0.0, SVG Export Plug-In . SVG Version: 6.00 Build 0)  -->
<svg version="1.1" id="Layer_1" xmlns="http://www.w3.org/2000/svg" xmlns:xlink="http://www.w3.org/1999/xlink" x="0px" y="0px"
	 viewBox="0 0 80 40" style="enable-background:new 0 0 80 40;" xml:space="preserve">
<style type="text/css">
	.st0{fill:#FFFFFF;}
</style>
<g>
	<g>
		<path class="st0" d="M1,0.2c25.3,0,50.6,0,75.9,0c1.3,0,3.6-1.1,3,2c-0.6,0.2-1.6,0.3-1.7,0.6c-2.7,10.8-10.3,18.4-17.6,26
			c-8.7,9-19.8,9.8-30.2,3C20.7,25.5,14.7,16.1,9.7,6.1C7.6,1.8,5.2,0.7,1,1.3C1,0.9,1,0.5,1,0.2z"/>
		<path class="st0" d="M1,0.2c0,0.4,0,0.7,0,1.1C1.3,3.3,0.9,5.8,2,7.3c4.3,6.1,8.7,12.1,13.6,17.7C22.3,32.8,31,37.6,41,40
			C27.3,40,13.7,40,0,40C0,27.6,0,15.1,0,2.7C0,1.8,0.7,1,1,0.2z"/>
		<path class="st0" d="M79.9,3.2c0,12.3,0,24.6,0,36.8c-11.3,0-22.6,0-34,0c7-1.7,12.5-5.6,17.5-10.8C70.8,21.6,76.2,13,79.9,3.2z"
			/>
		<path d="M79.9,3.2c-3.7,9.8-9.1,18.5-16.5,26.1c-5,5.2-10.5,9.1-17.5,10.8c-1.7,0-3.3,0-5,0c-10-2.4-18.6-7.2-25.4-14.9
			C10.7,19.4,6.2,13.4,2,7.3C0.9,5.8,1.3,3.3,1,1.3c4.1-0.5,6.6,0.6,8.7,4.8c5,10,11,19.4,20.6,25.7c10.4,6.8,21.5,6,30.2-3
			c7.4-7.6,14.9-15.2,17.6-26c0.1-0.3,1.1-0.4,1.7-0.6C79.9,2.5,79.9,2.8,79.9,3.2z"/>
	</g>
</g>
</svg>
