<?xml version="1.0" encoding="utf-8"?>
<!-- Generator: Adobe Illustrator 28.0.0, SVG Export Plug-In . SVG Version: 6.00 Build 0)  -->
<svg version="1.1" id="Layer_1" xmlns="http://www.w3.org/2000/svg" xmlns:xlink="http://www.w3.org/1999/xlink" x="0px" y="0px"
	 viewBox="0 0 80 40" style="enable-background:new 0 0 80 40;" xml:space="preserve">
<style type="text/css">
	.st0{fill:#FFFFFF;}
</style>
<g>
	<g>
		<path class="st0" d="M6,0c24.7,0,49.3,0,74,0c0,2,0,4,0,6c-2.9-5.2-6.6-5.5-9.7-0.5c-3.7,6.1-7,12.4-10.3,18.7
			c-2,3.7-6.6,6.1-10.4,5.8c-4.4-0.3-8.9,0.3-13.4,0.4c-2.2,0-4.5,0.2-6.6-0.2C21.2,28.7,19.5,21.1,16,15C13,9.8,9.3,5,6,0z"/>
		<path d="M6,0c3.3,5,7,9.8,10,15c3.5,6.1,5.2,13.7,13.7,15.1c2.2,0.4,4.4,0.2,6.6,0.2c4.5-0.1,9-0.6,13.4-0.4
			c3.8,0.2,8.4-2.1,10.4-5.8c3.3-6.3,6.6-12.6,10.3-18.7c3.1-5,6.8-4.6,9.7,0.5c0,0.3,0,0.7,0,1c-3.9,6.7-8.1,13.3-11.5,20.2
			C64.9,34.5,60.3,38,52.3,38c-5.5,0-11.2-1.2-16.3,2c-1.7,0-3.3,0-5,0c-8.3-2.6-15.7-6.4-20.1-14.4C7.3,19,3.6,12.5,0,6
			c0-2,0-4,0-6C2,0,4,0,6,0z"/>
		<path class="st0" d="M36,40c5.1-3.2,10.8-2.1,16.3-2c8,0.1,12.6-3.5,16.2-10.7c3.4-7,7.6-13.5,11.5-20.2c0,11,0,22,0,33
			C65.3,40,50.7,40,36,40z"/>
		<path class="st0" d="M0,6c3.6,6.5,7.3,13,10.9,19.6c4.4,8,11.8,11.9,20.1,14.4c-10.3,0-20.5,0-31,0C0,28.7,0,17.3,0,6z"/>
	</g>
</g>
</svg>
