<?xml version="1.0" encoding="utf-8"?>
<!-- Generator: Adobe Illustrator 28.0.0, SVG Export Plug-In . SVG Version: 6.00 Build 0)  -->
<svg version="1.1" id="Layer_1" xmlns="http://www.w3.org/2000/svg" xmlns:xlink="http://www.w3.org/1999/xlink" x="0px" y="0px"
	 viewBox="0 0 80 40" style="enable-background:new 0 0 80 40;" xml:space="preserve">
<style type="text/css">
	.st0{fill:#FFFFFF;}
</style>
<g>
	<g>
		<path d="M0,10c0-1,0-2,0-3c0.3-0.3,0.7-0.6,0.9-1C2,4.4,3.1,2.7,4.1,1C5.8,2.4,7.7,3.5,9,5.1c3,3.8,6.1,7.7,8.4,12
			c2.1,3.8,5.1,4.6,8.8,5c5.5,0.5,11,1.5,16.5,1.9c6.6,0.5,13.3,0.8,17.7-5.8c3.3-4.9,6.9-9.7,10.6-14.3c1-1.3,3-2.8,4.2-2.6
			C76.8,1.6,77.8,3.6,79,5c0.5,0.6,0.7,1.3,1,2c0,1,0,2,0,3c-3.4,5.5-6.3,11.2-10.2,16.4c-6,8-13.3,14-24.3,12.7
			c-5.4-0.6-10.8-0.9-16.3-1C22.7,38,16.6,36.3,12.7,31C7.9,24.4,4.2,17,0,10z"/>
		<path class="st0" d="M80,7c-0.3-0.7-0.6-1.4-1-2c-1.1-1.4-2.2-3.4-3.7-3.8c-1.2-0.3-3.2,1.3-4.2,2.6c-3.7,4.6-7.3,9.4-10.6,14.3
			C56,24.8,49.4,24.4,42.7,24c-5.5-0.4-11-1.4-16.5-1.9c-3.8-0.3-6.8-1.2-8.8-5C15,12.8,12,8.9,9,5.1C7.7,3.5,5.8,2.4,4.1,1
			C3.1,2.7,2,4.4,0.9,6C0.7,6.4,0.3,6.7,0,7c0-2.3,0-4.7,0-7c26.7,0,53.3,0,80,0C80,2.3,80,4.7,80,7z"/>
		<path class="st0" d="M0,10c4.2,7,7.9,14.4,12.7,21c3.8,5.2,10,6.9,16.5,7.1c5.4,0.1,10.9,0.4,16.3,1c11.1,1.2,18.3-4.8,24.3-12.7
			C73.7,21.2,76.6,15.5,80,10c0,10,0,20,0,30c-26.5,0-53.1,0-80,0C0,30,0,20,0,10z"/>
	</g>
</g>
</svg>
