<?xml version="1.0" encoding="utf-8"?>
<!-- Generator: Adobe Illustrator 28.0.0, SVG Export Plug-In . SVG Version: 6.00 Build 0)  -->
<svg version="1.1" id="Layer_1" xmlns="http://www.w3.org/2000/svg" xmlns:xlink="http://www.w3.org/1999/xlink" x="0px" y="0px"
	 viewBox="0 0 80 40" style="enable-background:new 0 0 80 40;" xml:space="preserve">
<style type="text/css">
	.st0{fill:#FFFFFF;}
</style>
<g>
	<g>
		<path class="st0" d="M43,40c-14.3,0-28.7,0-43,0C0,26.7,0,13.3,0,0c5.3,0,10.7,0,16,0C11.1,1.2,6.2,2.4,1.2,3.5
			C4,6.4,6.5,8.8,8.1,10.5c7.8-1.1,15.3-2.1,22.8-3.2c0.1,0.5,0.1,1,0.2,1.5C21.6,14.3,14.9,22.2,11,32.7c3.5,0,6.6,0,9.8,0
			c0.1-0.9,0.3-1.6,0.2-2.2C20.1,20.7,25.8,14.6,33,9.5c0.8-0.6,2-1.1,2.9-0.9c4.9,1.3,9.6,2.8,14.5,4.3c5.2,1.6,7.2,6.3,6.6,11.1
			c-0.6,4.9-6.5,9.7-12.4,10.1c-5.6,0.4-6.1-3.8-7-7.6c-3.2,1.2-6.3,2.4-9.7,3.7C32.2,35.3,37,38.5,43,40z M50.2,18.7
			c-3.7-1-6.3-1.8-8.9-2.5c-0.3,0.4-0.6,0.8-0.8,1.2c1.4,2,2.8,4,4.2,6C46.5,21.8,47.8,20.8,50.2,18.7z"/>
		<path d="M43,40c-6-1.5-10.8-4.7-15.1-9.9c3.4-1.3,6.5-2.5,9.7-3.7c0.9,3.8,1.4,8,7,7.6c5.9-0.4,11.8-5.2,12.4-10.1
			c0.6-4.8-1.4-9.6-6.6-11.1c-4.8-1.4-9.6-3-14.5-4.3c-0.8-0.2-2.1,0.4-2.9,0.9C25.8,14.6,20.1,20.7,21,30.5
			c0.1,0.6-0.1,1.3-0.2,2.2c-3.2,0-6.3,0-9.8,0C14.9,22.2,21.6,14.3,31,8.8c-0.1-0.5-0.1-1-0.2-1.5c-7.5,1-15,2.1-22.8,3.2
			c-1.6-1.6-4-4-6.8-6.9C6.2,2.4,11.1,1.2,16,0c1.7,0,3.3,0,5,0c3.4,0.7,6.9,1.2,10.2,2C48,6.4,62.9,14.3,75,26.9
			c-5.4-3.4-10.8-6.7-16.3-10.2c0,3.7,0.6,7-0.1,10.1C56.8,34.3,51,38,44,40C43.7,40,43.3,40,43,40z"/>
		<path class="st0" d="M75,26.9C62.9,14.3,48,6.4,31.2,2C27.9,1.2,24.4,0.7,21,0c19.7,0,39.3,0,59,0c0,10,0,20,0,30
			C78.3,29,76.6,27.9,75,26.9z"/>
		<path class="st0" d="M75,26.9c1.7,1,3.4,2.1,5,3.1c0,3.3,0,6.7,0,10c-12,0-24,0-36,0c7-2,12.8-5.7,14.5-13.2
			c0.7-3,0.1-6.4,0.1-10.1C64.1,20.1,69.5,23.5,75,26.9z"/>
		<path d="M50.2,18.7c-2.4,2.1-3.6,3.2-5.5,4.8c-1.4-2.1-2.8-4-4.2-6c0.3-0.4,0.6-0.8,0.8-1.2C43.9,16.9,46.5,17.7,50.2,18.7z"/>
	</g>
</g>
</svg>
