<?xml version="1.0" encoding="utf-8"?>
<!-- Generator: Adobe Illustrator 28.0.0, SVG Export Plug-In . SVG Version: 6.00 Build 0)  -->
<svg version="1.1" id="Layer_1" xmlns="http://www.w3.org/2000/svg" xmlns:xlink="http://www.w3.org/1999/xlink" x="0px" y="0px"
	 viewBox="0 0 80 40" style="enable-background:new 0 0 80 40;" xml:space="preserve">
<style type="text/css">
	.st0{fill:#FFFFFF;}
</style>
<g>
	<g>
		<path d="M20,0c3,0,6,0,9,0c2.4,7.6,2.6,7.7,9.8,6c9.2-2.2,17.8-0.9,25.5,4.7C71.8,16.1,76.9,23.4,80,32c0,0.3,0,0.7,0,1
			c-2.4,0.3-5,1.2-7.1,0.6c-1.2-0.4-1.7-3.3-2.7-5.2c-5.1,4.5-8.9,11.7-16.6,9.5c3.5-5.1,6.5-11.3,11.2-15.4c3.6-3.1,0-2.8,0-2.8
			c-2.6,2.6-5.1,6.4-8.6,8c-3.8,1.8-8.5,2.1-12.8,2.2c-7.4,0.3-11.8-5.5-10.1-12.6c0.2-1,0.4-2,0.9-4c-1.7,1.2-2.7,1.6-3.2,2.3
			c-3.9,6.3-9.8,7.4-16.5,6.5c-1-0.1-2-0.1-3,0C6.8,22.3,3.1,20.4,0,17c0-0.3,0-0.7,0-1c3,0.3,6.7-0.4,8.7,1.2
			c4.7,3.6,8,3.8,11.3-0.3c-4.5-2.1-9.2-4.4-13.9-6.6C6.3,9.9,6.5,9.5,6.6,9c2.2,0,4.5,0,7.2,0c-1.3-2.5-2.4-4.6-3.5-6.7
			c4.9-1.2,8.5-0.3,10.9,4.3c1.2,2.4,3.2,4.5,6.4,4.2C25,7,22.5,3.5,20,0z M44,15.2c-4.4,4.6-3.6,9.7,1,12.3c3.1,1.7,6.7,0.1,8.5-5
			c1-2.8,0.4-6.2,0-9.3c-0.2-1.6-1.4-3.1-2.2-5c-2.3,1.5-4.7,3.1-7.9,5.1c4.1,1.3,9.8-1,9.2,4.6c-0.5,5.8-5.7,3.7-9.8,3.8
			C43.4,19.4,43.7,17.3,44,15.2z"/>
		<path class="st0" d="M0,17c3.1,3.4,6.8,5.3,11.5,5c1-0.1,2-0.1,3,0c6.7,0.9,12.6-0.1,16.5-6.5c0.4-0.7,1.5-1.1,3.2-2.3
			c-0.4,2.1-0.6,3.1-0.9,4c-1.7,7.2,2.6,12.9,10.1,12.6c4.3-0.2,9-0.4,12.8-2.2c3.5-1.7,6-5.5,8.6-8c0,0,3.6-0.3,0,2.8
			c-4.7,4.1-7.7,10.4-11.2,15.4c7.7,2.2,11.4-5,16.6-9.5c0.9,2,1.4,4.8,2.7,5.2c2.1,0.6,4.7-0.3,7.1-0.6c0,2.3,0,4.7,0,7
			c-19.7,0-39.3,0-59,0c1.7-0.3,3.3-0.6,5-1c1.5-0.3,4.4-1,4.4-1.1c-1.2-6.1,3-2.7,5-2.8c2-0.1,4,0,6,0c-1.9-1.9-4-2.7-5.8-4
			c-8.2-6-20.1-1.2-21.6,9c-4.6,0-9.2,0-14,0C0,32.3,0,24.7,0,17z M3.3,35.6c3.5-0.7,7.7-0.3,9.2-2.1c4-4.8,9.1-5.2,15.6-5.9
			C13.8,25.3,7.5,27.2,3.3,35.6z"/>
		<path class="st0" d="M80,32c-3.1-8.6-8.2-15.9-15.7-21.3C56.5,5.1,48,3.8,38.8,6c-7.2,1.7-7.4,1.6-9.8-6c17,0,34,0,51,0
			C80,10.7,80,21.3,80,32z"/>
		<path class="st0" d="M20,0c2.5,3.5,5,7,7.7,10.9c-3.2,0.3-5.2-1.8-6.4-4.2c-2.4-4.6-6-5.5-10.9-4.3c1.1,2.1,2.2,4.1,3.5,6.7
			c-2.7,0-5,0-7.2,0c-0.2,0.4-0.3,0.9-0.5,1.3c4.7,2.2,9.4,4.4,13.9,6.6c-3.3,4.1-6.6,3.8-11.3,0.3C6.7,15.6,3,16.3,0,16
			C0,10.7,0,5.3,0,0C6.7,0,13.3,0,20,0z"/>
		<path d="M14,40c1.5-10.1,13.4-15,21.6-9c1.7,1.3,3.9,2,5.8,4c-2,0-4-0.1-6,0c-2,0.1-6.2-3.3-5,2.8c0,0.1-2.8,0.8-4.4,1.1
			c-1.7,0.4-3.3,0.7-5,1C18.7,40,16.3,40,14,40z"/>
		<path class="st0" d="M44,15.2c-0.3,2.1-0.7,4.2-1.1,6.6c4-0.1,9.2,2,9.8-3.8c0.5-5.6-5.1-3.3-9.2-4.6c3.2-2.1,5.6-3.7,7.9-5.1
			c0.9,1.9,2,3.4,2.2,5c0.3,3.1,0.9,6.5,0,9.3c-1.8,5.1-5.4,6.8-8.5,5C40.5,25,39.6,19.9,44,15.2z"/>
		<path d="M3.3,35.6c4.2-8.3,10.5-10.3,24.8-8c-6.5,0.7-11.6,1.1-15.6,5.9C11,35.3,6.8,34.9,3.3,35.6z"/>
	</g>
</g>
</svg>
