<?xml version="1.0" encoding="utf-8"?>
<!-- Generator: Adobe Illustrator 28.0.0, SVG Export Plug-In . SVG Version: 6.00 Build 0)  -->
<svg version="1.1" id="Layer_1" xmlns="http://www.w3.org/2000/svg" xmlns:xlink="http://www.w3.org/1999/xlink" x="0px" y="0px"
	 viewBox="0 0 80 40" style="enable-background:new 0 0 80 40;" xml:space="preserve">
<style type="text/css">
	.st0{fill:#FFFFFF;}
</style>
<g>
	<g>
		<path d="M8,0c0.3,0,0.7,0,1,0c0.5,0.3,1,0.8,1.5,1c15,4,30.1,7.7,45,12.2C65,16,73.8,20.7,80,29c0,0.3,0,0.7,0,1
			c-0.9-0.2-2.1-0.1-2.8-0.6c-4.4-2.7-8.5-5.9-13-8.3c-3.9-2-8.3-3.1-13.3-5c3.6,8.4,2.5,12.1-4,16.5c-3.6,2.4-7.2,4.9-10.8,7.3
			c-1,0-2,0-3,0c-0.5-3.8-0.9-7.6-1.5-12.1c2.3,0.3,4.2,0.5,6.2,0.8c0-1.7,0-3.4,0-4.1c-2.7-0.4-6.2,0.2-7.2-1.2
			c-1.8-2.4-2.2-6-3.2-9.1c-5.7,2.8-14.4,3.7-13.4,14.2C9.1,26.3,4.5,24.2,0,22c0-0.3,0-0.7,0-1c7.3-3.3,14.6-6.6,23.3-10.5
			c-6.2,0.8-11.1,1.4-16.7,2.1C7.1,8.3,7.5,4.2,8,0z M39.3,28.9c7.3-1.4,9.9-4,9.8-9.1c-0.1-5.6-4.1-5.2-6.8-5.6
			C41.2,19.3,40.3,23.9,39.3,28.9z"/>
		<path class="st0" d="M80,29c-6.2-8.3-15-13-24.5-15.9C40.6,8.7,25.5,5,10.5,1C10,0.8,9.5,0.3,9,0c23.5,0,47.1,0,71,0
			C80,9.7,80,19.3,80,29z"/>
		<path class="st0" d="M0,22c4.5,2.2,9.1,4.3,13.9,6.6C13,18.1,21.7,17.3,27.3,14.4c1,3.1,1.4,6.6,3.2,9.1c1,1.3,4.5,0.8,7.2,1.2
			c0,0.7,0,2.4,0,4.1c-2.1-0.3-3.9-0.5-6.2-0.8c0.5,4.5,1,8.3,1.5,12.1c-11,0-22,0-33,0C0,34,0,28,0,22z"/>
		<path class="st0" d="M36,40c3.6-2.4,7.2-4.8,10.8-7.3c6.6-4.5,7.6-8.1,4-16.5c5,1.8,9.4,2.9,13.3,5c4.5,2.4,8.6,5.6,13,8.3
			c0.8,0.5,1.9,0.4,2.8,0.6c0,3.3,0,6.7,0,10c-6,0-12,0-18,0c3-4,6.1-8,8.5-11.1c-4.8,0-10.6,0-16.3,0c1.6,3.5,3.2,7.3,4.9,11.1
			C51.3,40,43.7,40,36,40z"/>
		<path class="st0" d="M8,0C7.5,4.2,7.1,8.3,6.6,12.7c5.6-0.7,10.5-1.3,16.7-2.1C14.6,14.4,7.3,17.7,0,21C0,14,0,7,0,0
			C2.7,0,5.3,0,8,0z"/>
		<path d="M59,40c-1.7-3.8-3.3-7.5-4.9-11.1c5.8,0,11.5,0,16.3,0C68.1,32,65,36,62,40C61,40,60,40,59,40z"/>
		<path class="st0" d="M39.3,28.9c1-5,2-9.7,3-14.7c2.7,0.4,6.7,0,6.8,5.6C49.2,24.9,46.6,27.5,39.3,28.9z"/>
	</g>
</g>
</svg>
