<?xml version="1.0" encoding="utf-8"?>
<!-- Generator: Adobe Illustrator 28.0.0, SVG Export Plug-In . SVG Version: 6.00 Build 0)  -->
<svg version="1.1" id="Layer_1" xmlns="http://www.w3.org/2000/svg" xmlns:xlink="http://www.w3.org/1999/xlink" x="0px" y="0px"
	 viewBox="0 0 80 40" style="enable-background:new 0 0 80 40;" xml:space="preserve">
<style type="text/css">
	.st0{fill:#FFFFFF;}
</style>
<g>
	<g>
		<path class="st0" d="M64,0c5.3,0,10.7,0,16,0c0,13.3,0,26.7,0,40c-14.3,0-28.7,0-43,0c5.9-1.7,11.1-4.5,15-10
			c-3.5-1.3-6.6-2.4-8.7-3.2c-1.9,2.7-3,5.4-5,6.9c-2.7,1.9-9.9-1.1-13-5c-2.9-3.7-3.5-7.7-0.8-11.8c4-6,10.9-5.8,16.7-7.8
			c1.6-0.6,4.1-0.7,5.3,0.1c7.2,5,13.2,10.9,12.5,20.8c-0.1,0.9,0.3,1.9,0.4,2.6c3.4,0,6.4,0,10.5,0c-3.3-5.1-5.7-9.8-9-13.7
			c-3.4-4-7.7-7.2-12.9-12c8.9,1.4,16.5,2.6,23.6,3.7c2.2-1.9,4.7-4.1,7.4-6.4c-1-0.5-1.7-1-2.4-1.1C72.4,2,68.2,1,64,0z M39.4,17.3
			c-0.3-0.5-0.6-0.9-0.9-1.4c-2.5,0.9-5.1,1.8-8.3,2.9c2.2,2,3.5,3.2,5.3,4.8C37,21.2,38.2,19.2,39.4,17.3z"/>
		<path d="M64,0c4.2,1,8.4,2,12.5,3c0.7,0.2,1.4,0.7,2.4,1.1c-2.7,2.3-5.1,4.5-7.4,6.4c-7.1-1.1-14.7-2.3-23.6-3.7
			c5.2,4.8,9.5,8,12.9,12c3.3,3.9,5.7,8.6,9,13.7c-4.1,0-7.1,0-10.5,0C59.3,31.9,59,30.9,59,30c0.7-9.9-5.3-15.8-12.5-20.8
			c-1.2-0.9-3.7-0.7-5.3-0.1c-5.8,2.1-12.7,1.9-16.7,7.8c-2.7,4.1-2.2,8.1,0.8,11.8c3.1,3.9,10.3,6.9,13,5c2-1.4,3.1-4.2,5-6.9
			c2.1,0.8,5.1,1.9,8.7,3.2c-3.9,5.5-9,8.3-15,10c-0.3,0-0.7,0-1,0c-7-2-12.8-5.7-14.5-13.2c-0.7-3-0.1-6.4-0.1-10
			c-1.4,0.8-2.7,1.6-4.1,2.4c-4.1,2.5-8.2,5.1-12.2,7.7c9.3-10.4,21.2-17,34-21.8C45.4,2.7,52.3,1.6,59,0C60.7,0,62.3,0,64,0z"/>
		<path class="st0" d="M59,0c-6.7,1.6-13.6,2.7-20,5.1C26.2,9.9,14.4,16.5,5,26.9c-1.7,1.4-3.4,2.7-5,4.1C0,20.7,0,10.3,0,0
			C19.7,0,39.3,0,59,0z"/>
		<path class="st0" d="M0,31c1.7-1.4,3.4-2.7,5-4.1c4.1-2.6,8.1-5.1,12.2-7.7c1.3-0.8,2.7-1.6,4.1-2.4c0,3.6-0.6,7,0.1,10
			C23.2,34.3,29,38,36,40c-12,0-24,0-36,0C0,37,0,34,0,31z"/>
		<path d="M39.4,17.3c-1.2,2-2.5,3.9-3.9,6.4c-1.8-1.6-3.1-2.8-5.3-4.8c3.2-1.1,5.8-2,8.3-2.9C38.8,16.4,39.1,16.8,39.4,17.3z"/>
	</g>
</g>
</svg>
