<?xml version="1.0" encoding="utf-8"?>
<!-- Generator: Adobe Illustrator 28.0.0, SVG Export Plug-In . SVG Version: 6.00 Build 0)  -->
<svg version="1.1" id="Layer_1" xmlns="http://www.w3.org/2000/svg" xmlns:xlink="http://www.w3.org/1999/xlink" x="0px" y="0px"
	 viewBox="0 0 80 40" style="enable-background:new 0 0 80 40;" xml:space="preserve">
<style type="text/css">
	.st0{fill:#FFFFFF;}
</style>
<g>
	<g>
		<path d="M71,0c0.3,0,0.7,0,1,0c0.4,4.2,0.9,8.5,1.3,12.7c-5.8-0.7-10.5-1.4-16.7-2.1c8.7,3.9,16,7.2,23.3,10.5c0,0.3,0,0.7,0,1
			c-4.6,2.2-9.1,4.3-14,6.6c0.8-10.7-7.9-11.3-13.4-14.2c-1,3.1-1.4,6.7-3.3,9.1c-1.1,1.4-4.7,0.8-7.4,1.1c0,1,0.1,2.6,0.2,4.1
			c2.2-0.1,4.2-0.2,6.3-0.4c-0.6,4.4-1,8.1-1.5,11.8c-1,0-2,0-3,0c-2-1.3-4-2.6-5.9-4c-3.3-2.4-7.6-4.3-9.5-7.5
			c-1.7-2.9-0.9-7.4-1.3-11.5c0.2,0-0.6-0.2-1.1,0C18.5,21,10.7,25,3,29c-0.9,0.5-2,0.7-3,1c0-0.3,0-0.7,0-1c2.4-2.4,4.6-5,7.3-7
			C18.1,13.6,31.2,10.6,44,7C52.9,4.5,62,2.3,71,0z M37.8,14.4c-6.4,0.5-7.2,1.3-6.8,7c0.2,4.3,4.4,7.2,9.6,6.9
			C39.7,23.8,38.8,19.2,37.8,14.4z"/>
		<path class="st0" d="M71,0c-9,2.3-18.1,4.5-27,7c-12.8,3.6-25.9,6.6-36.7,15c-2.7,2-4.9,4.7-7.3,7C0,19.3,0,9.7,0,0
			C23.7,0,47.3,0,71,0z"/>
		<path class="st0" d="M47,40c0.5-3.7,0.9-7.3,1.5-11.8c-2.1,0.1-4.1,0.2-6.3,0.4c-0.1-1.5-0.2-3.1-0.2-4.1c2.7-0.3,6.3,0.3,7.4-1.1
			c1.9-2.3,2.2-5.9,3.3-9.1c5.4,2.9,14.2,3.5,13.4,14.2c4.8-2.3,9.4-4.5,14-6.6c0,6,0,12,0,18C69,40,58,40,47,40z"/>
		<path class="st0" d="M0,30c1-0.3,2.1-0.5,3-1c7.8-4,15.5-8,23.3-11.9c0.5-0.3,1.3,0,1.1,0c0.3,4.1-0.5,8.5,1.3,11.5
			c1.9,3.2,6.2,5.1,9.5,7.5c1.9,1.4,3.9,2.7,5.9,4c-7.7,0-15.3,0-23,0c1.7-3.8,3.3-7.6,4.8-11.1c-6,0-11.6,0-17.4,0
			c1,0.9,2.5,1.8,3.6,3.1c2.1,2.5,3.9,5.3,5.9,7.9c-6,0-12,0-18,0C0,36.7,0,33.3,0,30z"/>
		<path class="st0" d="M80,21c-7.3-3.3-14.6-6.6-23.3-10.5c6.1,0.8,10.9,1.4,16.7,2.1C72.9,8.5,72.4,4.2,72,0c2.7,0,5.3,0,8,0
			C80,7,80,14,80,21z"/>
		<path d="M18,40c-2-2.7-3.8-5.4-5.9-7.9c-1.1-1.3-2.6-2.3-3.6-3.1c5.7,0,11.4,0,17.4,0c-1.5,3.4-3.2,7.2-4.8,11.1
			C20,40,19,40,18,40z"/>
		<path class="st0" d="M37.8,14.4c0.9,4.7,1.8,9.4,2.8,14c-5.2,0.2-9.3-2.7-9.6-6.9C30.7,15.7,31.4,14.9,37.8,14.4z"/>
	</g>
</g>
</svg>
