<?xml version="1.0" encoding="utf-8"?>
<!-- Generator: Adobe Illustrator 28.0.0, SVG Export Plug-In . SVG Version: 6.00 Build 0)  -->
<svg version="1.1" id="Layer_1" xmlns="http://www.w3.org/2000/svg" xmlns:xlink="http://www.w3.org/1999/xlink" x="0px" y="0px"
	 viewBox="0 0 80 40" style="enable-background:new 0 0 80 40;" xml:space="preserve">
<style type="text/css">
	.st0{fill:#FFFFFF;}
</style>
<g>
	<g>
		<path d="M51,0c3,0,6,0,9,0c-2.5,3.5-5,7-7.4,10.5c2.2-0.5,4.6-1.6,5.8-3.5c2.7-4.4,6.1-6,11.3-4.6c-1.1,2.1-2.2,4.2-3.4,6.4
			c2.6,0.2,4.9,0.3,7.2,0.4c0.1,0.4,0.1,0.8,0.2,1.2c-4.7,2.2-9.3,4.3-13.9,6.4c3.3,3.1,7.5,4.5,9.7,2.1c3.1-3.6,6.8-2.9,10.6-3
			c0,0.3,0,0.7,0,1c-4.6,5.8-11.4,4-17.4,5.3c-8.1,1.6-10.8-5.2-17-9.3c0.7,2.6,1,3.7,1.3,4.8c1.3,6-2.6,11.8-8.3,12.2
			c-10,0.7-19.2-0.4-23.2-12.3c-0.8,1.5-1.9,2.8-1.7,3.1c4.2,5.8,8.6,11.5,12.8,17.1c-8.1,2.4-11.7-5.5-17.3-9.7
			c-1,6.5-2.7,7.3-9.3,4.9c0-0.3,0-0.7,0-1c0.2-0.1,0.4-0.1,0.4-0.2C6,13.6,24.9-0.8,44.5,7c1.1,0.4,3.4-0.6,4.3-1.7
			C49.9,3.9,50.3,1.8,51,0z M28.3,8.2c-0.6,1.7-1,2.8-1.4,4c-0.7,2.3-2.4,5.1-1.7,6.8c1.3,3.2,3.6,6.5,6.4,8.5
			c0.9,0.7,5.7-1.9,6.8-4c1.1-2.3-0.1-5.7-0.3-8.6c-0.8,0.1-1.5,0.2-2.3,0.3c0.4,2.1,0.8,4.2,1.3,6.7c-4.2-0.3-9.2,1.7-9.8-3.8
			c-0.6-5.7,5.2-3.5,9.5-4.8C33.2,11.2,30.7,9.7,28.3,8.2z"/>
		<path class="st0" d="M0,33c6.5,2.4,8.3,1.6,9.3-4.9c5.6,4.3,9.2,12.1,17.3,9.7c-4.2-5.5-8.6-11.3-12.8-17.1
			c-0.2-0.3,0.8-1.6,1.7-3.1c4,11.9,13.2,13,23.2,12.3c5.7-0.4,9.5-6.2,8.3-12.2c-0.2-1.1-0.6-2.2-1.3-4.8c6.2,4.1,8.9,11,17,9.3
			C68.6,21,75.4,22.8,80,17c0,7.7,0,15.3,0,23c-4.7,0-9.3,0-14,0c0.2-6-3.8-9.2-8.5-10.6c-7.1-2.2-13.4,0.7-20.1,5.9
			c4.1-0.3,6.8-0.7,9.6-0.7c1,0,2.8,1.1,2.7,1.4c-0.9,3.8,1.9,2.8,3.8,3.1c1.8,0.3,3.7,0.7,5.5,1c-19.7,0-39.3,0-59,0
			C0,37.6,0,35.3,0,33z M76.4,34.9c-4.1-7.9-12.1-10.3-22.2-7.5c3,0.9,8.2,0.9,10.4,3.5C68.1,35.1,71.9,35.1,76.4,34.9z"/>
		<path class="st0" d="M51,0c-0.7,1.8-1.1,3.9-2.2,5.3c-0.9,1.1-3.2,2.1-4.3,1.7C24.9-0.8,6,13.6,0.4,31.8c0,0.1-0.3,0.1-0.4,0.2
			C0,21.3,0,10.7,0,0C17,0,34,0,51,0z"/>
		<path class="st0" d="M80,16c-3.8,0.1-7.4-0.6-10.6,3c-2.2,2.4-6.4,1.1-9.7-2.1c4.6-2.1,9.2-4.3,13.9-6.4c-0.1-0.4-0.1-0.8-0.2-1.2
			c-2.3-0.1-4.6-0.3-7.2-0.4c1.2-2.3,2.3-4.4,3.4-6.4C64.5,1,61,2.6,58.3,7c-1.1,1.9-3.6,3-5.8,3.5C55,7,57.5,3.5,60,0
			c6.7,0,13.3,0,20,0C80,5.3,80,10.7,80,16z"/>
		<path d="M59,40c-1.8-0.3-3.7-0.7-5.5-1c-1.9-0.3-4.7,0.8-3.8-3.1c0.1-0.3-1.8-1.4-2.7-1.4c-2.8,0-5.5,0.4-9.6,0.7
			c6.7-5.2,13-8.1,20.1-5.9C62.2,30.8,66.2,34,66,40C63.7,40,61.3,40,59,40z"/>
		<path class="st0" d="M28.3,8.2c2.4,1.4,4.9,2.9,8.5,5.1c-4.3,1.4-10.1-0.9-9.5,4.8c0.6,5.5,5.6,3.5,9.8,3.8
			c-0.5-2.5-0.9-4.6-1.3-6.7c0.8-0.1,1.5-0.2,2.3-0.3c0.2,2.9,1.4,6.3,0.3,8.6c-1,2.1-5.8,4.7-6.8,4c-2.8-2-5.1-5.3-6.4-8.5
			c-0.7-1.8,1-4.5,1.7-6.8C27.3,11.1,27.7,9.9,28.3,8.2z"/>
		<path d="M76.4,34.9c-4.5,0.2-8.2,0.2-11.8-4c-2.2-2.6-7.4-2.6-10.4-3.5C64.3,24.6,72.3,27,76.4,34.9z"/>
	</g>
</g>
</svg>
