<?xml version="1.0" encoding="utf-8"?>
<!-- Generator: Adobe Illustrator 28.0.0, SVG Export Plug-In . SVG Version: 6.00 Build 0)  -->
<svg version="1.1" id="Layer_1" xmlns="http://www.w3.org/2000/svg" xmlns:xlink="http://www.w3.org/1999/xlink" x="0px" y="0px"
	 viewBox="0 0 40 120" style="enable-background:new 0 0 40 120;" xml:space="preserve">
<style type="text/css">
	.st0{fill:#FFFFFF;}
</style>
<g>
	<g>
		<path class="st0" d="M22,120c-7.3,0-14.6,0-22,0C0,86,0,52,0,18c5.1,0.8,10.1,1.7,15.2,2.4c4.5,0.7,9.2,0.8,13.6,2.1
			c3.3,0.9,6.2,1.3,8-1.7c0.8-1.3-0.3-3.7-0.6-5.7c3.3,0.6,3.6-1.4,2.2-4.3C36.6,7.2,34.8,3.6,33,0c2.3,0,4.7,0,7,0c0,40,0,80,0,120
			c-3.7,0-7.3,0-11,0c0.5-2.7,1.2-5.1,4.8-5.2c0.7,0,1.9-1.3,2.1-2.2c2.1-6.9,1.7-7.7-4.9-11.2c1.6-5.8,6.8-12.1-1.3-17.3
			c1-0.2,2-0.3,3.2-0.5c-0.8-1-1.5-1.7-2.1-2.4c2.4-0.4,4.6-0.7,6.9-1c0-0.3-0.1-0.6-0.1-0.9c-4.2-1.3-8.3-2.7-13-4.2
			c2.7-1.4,4.5-2.4,6.2-3.3c-0.2-0.4-0.3-0.8-0.5-1.1c-5.5,1-10.9,2-16.5,3c3.2,1.5,6.4,3,10,4.7c-5.7,0-10.6,0-15.6,0
			c3.8,0.7,7.7,1.4,12.6,2.2c-6,2.6-10.8,4.7-15.7,6.8c0.4,0.8,0.7,1.7,1.1,2.5c4.8-1.9,9.6-3.9,14.3-5.8c0.1,0.3,0.3,0.5,0.4,0.8
			c-4.6,2.7-9.2,5.3-13.7,8c0.3,0.6,0.6,1.2,0.9,1.8c4.2-1.5,8.4-3,12.6-4.5c0.2,0.3,0.3,0.6,0.5,0.9c-3.9,2.4-7.8,4.9-11.7,7.3
			c3,0.2,6.1,0.3,8.8-0.7c5.6-2.1,5.6-2.3,7.2-0.8c-5.3,4.3-14.2,0.6-19.1,8.9c3.7-0.3,6.6-0.5,9.6-0.7c-1.4,3.7-2.7,6.9-4,10.2
			c4.9,1.5,7.8,0.5,8.8-4.8c0.4-1.9,2.3-3.6,3.6-5.3c0.7,0.3,1.4,0.7,2,1C25,111,23.5,115.5,22,120z M26.1,55
			c2.6-0.5,5.3-1.1,8.5-1.7c-6.5-1.4-12.5-2.7-18.5-3.9c-0.1,0.5-0.2,0.9-0.4,1.4c2.4,1.1,4.8,2.1,7.1,3.2
			c-4.3-0.4-8.6-0.7-12.9-1.1c0,0.3-0.1,0.6-0.1,0.9c3.4,1.2,6.9,2.5,10.1,3.7c-3.8,1.2-7.6,2.4-11.4,3.6c0.1,0.3,0.2,0.6,0.3,0.9
			c1.4,0.1,2.9,0.3,4.8,0.5c-2.8,1-5.1,1.9-7.4,2.7c0.1,0.5,0.3,1,0.4,1.4c8.1-1.7,16.1-3.4,24.2-5.1c-0.1-0.5-0.1-1-0.2-1.5
			c-4.7,0.6-9.3,1.2-14,1.9c0-0.5-0.1-1-0.1-1.5c6.3-0.5,12.5-1,18.8-1.5c0,0,0.1-0.3,0.1-0.3C32.4,57.2,29.3,56.1,26.1,55z
			 M3.9,28.8c9.7,4.9,26.3,4,31.9-1.2c-14.5-4.3-18.4-5.8-25.4-4c2.8,0.5,5.7,1.1,8.6,1.7c0,0.2,0,0.3,0,0.5
			c-1.7,0.1-3.5,0.2-5.2,0.4c0,0.2-0.1,0.5-0.1,0.7c2.8,0.9,5.6,1.7,8.5,2.6c0,0.3,0,0.5-0.1,0.8C16.4,29.8,10.7,29.3,3.9,28.8z
			 M30.8,42.9c-7.1-1-14.3-1.5-20.8,3.6c8.2,3.3,15.3,0.2,22.5-2.3c-2.1-0.1-4.3-0.3-6.4-0.4c0-0.2,0-0.4,0-0.7
			C27.7,43,29.3,43,30.8,42.9z M3.8,41.6C3.9,42.3,4,43,4.1,43.7c9-2.1,17.9-4.1,26.9-6.2c-0.2-0.7-0.3-1.4-0.5-2.1
			C21.6,37.4,12.7,39.5,3.8,41.6z M30.3,65.4c-0.2-0.8-0.4-1.6-0.6-2.4c-6.2,2.1-12.4,4.2-18.6,6.3c0.3,0.8,0.6,1.7,0.9,2.5
			C18.1,69.7,24.2,67.6,30.3,65.4z M11.9,33.8c5.9,0.3,13.5,0.7,21.1,1.1c0-0.4,0.1-0.8,0.1-1.1C25.5,33.8,17.9,33.8,11.9,33.8z"/>
		<path d="M22,120c1.5-4.5,3-9,4.5-13.5c-0.7-0.3-1.4-0.7-2-1c-1.2,1.8-3.2,3.4-3.6,5.3c-1,5.2-3.9,6.3-8.8,4.8
			c1.3-3.2,2.5-6.5,4-10.2c-3,0.2-5.9,0.4-9.6,0.7c4.9-8.3,13.8-4.7,19.1-8.9c-1.7-1.5-1.6-1.3-7.2,0.8c-2.7,1-5.8,1-8.8,0.7
			c3.9-2.4,7.8-4.9,11.7-7.3c-0.2-0.3-0.3-0.6-0.5-0.9c-4.2,1.5-8.4,3-12.6,4.5c-0.3-0.6-0.6-1.2-0.9-1.8c4.6-2.7,9.2-5.3,13.7-8
			c-0.1-0.3-0.3-0.5-0.4-0.8c-4.8,1.9-9.6,3.9-14.3,5.8c-0.4-0.8-0.7-1.7-1.1-2.5c4.8-2.1,9.7-4.2,15.7-6.8
			c-4.9-0.9-8.8-1.6-12.6-2.2c4.9,0,9.9,0,15.6,0c-3.6-1.7-6.8-3.2-10-4.7c5.6-1,11-2,16.5-3c0.2,0.4,0.3,0.8,0.5,1.1
			c-1.7,0.9-3.5,1.8-6.2,3.3c4.7,1.5,8.9,2.9,13,4.2c0,0.3,0.1,0.6,0.1,0.9c-2.2,0.3-4.4,0.7-6.9,1c0.6,0.7,1.2,1.4,2.1,2.4
			c-1.2,0.2-2.2,0.3-3.2,0.5c8.1,5.2,2.9,11.4,1.3,17.3c6.6,3.5,7,4.3,4.9,11.2c-0.3,0.9-1.4,2.2-2.1,2.2c-3.6,0-4.3,2.4-4.8,5.2
			C26.7,120,24.3,120,22,120z"/>
		<path d="M33,0c1.8,3.6,3.6,7.2,5.4,10.8c1.4,2.9,1.1,4.9-2.2,4.3c0.3,2.1,1.4,4.5,0.6,5.7c-1.8,3-4.7,2.6-8,1.7
			c-4.4-1.2-9-1.4-13.6-2.1C10.1,19.7,5.1,18.8,0,18c0-0.3,0-0.7,0-1c5.4,0,10.8,0,15.6,0c-0.1-0.1-1-0.9-2.1-1.8
			c2.3-0.1,4.1-0.3,7.1-0.4c-4.5-3.9-8.1-7.1-11.8-10.3C9,3.9,9.3,3.4,9.6,2.8c3.1,1.5,6.2,3.1,9.3,4.6C20.2,8,21.5,8.7,22.9,9
			c2.6,0.5,5.3,0.8,9.4,1.3C29.5,6.3,27.3,3.2,25,0C27.7,0,30.3,0,33,0z"/>
		<path class="st0" d="M25,0c2.3,3.2,4.5,6.3,7.3,10.3c-4.1-0.5-6.8-0.8-9.4-1.3c-1.4-0.3-2.7-0.9-3.9-1.5c-3.1-1.5-6.2-3-9.3-4.6
			C9.3,3.4,9,3.9,8.7,4.4c3.7,3.2,7.3,6.4,11.8,10.3c-2.9,0.2-4.8,0.3-7.1,0.4c1.1,1,2,1.7,2.1,1.8C10.8,17,5.4,17,0,17
			C0,11.4,0,5.8,0,0C8.3,0,16.7,0,25,0z"/>
		<path d="M26.1,55c3.1,1.1,6.3,2.2,9.4,3.3c0,0-0.1,0.3-0.1,0.3c-6.3,0.5-12.5,1-18.8,1.5c0,0.5,0.1,1,0.1,1.5
			c4.7-0.6,9.3-1.2,14-1.9c0.1,0.5,0.1,1,0.2,1.5c-8.1,1.7-16.1,3.4-24.2,5.1c-0.1-0.5-0.3-1-0.4-1.4c2.3-0.8,4.6-1.7,7.4-2.7
			c-1.9-0.2-3.3-0.3-4.8-0.5c-0.1-0.3-0.2-0.6-0.3-0.9c3.8-1.2,7.6-2.4,11.4-3.6c-3.2-1.2-6.6-2.4-10.1-3.7c0-0.3,0.1-0.6,0.1-0.9
			c4.3,0.4,8.6,0.7,12.9,1.1C24,54.3,25.1,54.7,26.1,55z"/>
		<path d="M3.9,28.8c6.8,0.6,12.5,1,18.2,1.5c0-0.3,0-0.5,0.1-0.8c-2.8-0.9-5.6-1.7-8.5-2.6c0-0.2,0.1-0.5,0.1-0.7
			c1.7-0.1,3.5-0.2,5.2-0.4c0-0.2,0-0.3,0-0.5c-2.9-0.6-5.8-1.1-8.6-1.7c6.9-1.8,10.9-0.4,25.4,4C30.1,32.7,13.5,33.6,3.9,28.8z"/>
		<path d="M30.8,42.9c-1.6,0.1-3.2,0.2-4.7,0.2c0,0.2,0,0.4,0,0.7c2.1,0.1,4.3,0.3,6.4,0.4c-7.2,2.5-14.2,5.6-22.5,2.3
			C16.5,41.4,23.7,41.9,30.8,42.9z"/>
		<path d="M3.8,41.6c8.9-2.1,17.8-4.1,26.7-6.2c0.2,0.7,0.3,1.4,0.5,2.1c-9,2.1-17.9,4.1-26.9,6.2C4,43,3.9,42.3,3.8,41.6z"/>
		<path d="M30.3,65.4c-6.1,2.1-12.2,4.3-18.3,6.4c-0.3-0.8-0.6-1.7-0.9-2.5c6.2-2.1,12.4-4.2,18.6-6.3
			C29.9,63.8,30.1,64.6,30.3,65.4z"/>
		<path d="M26.1,55c-1.1-0.4-2.1-0.8-3.2-1.1c-2.4-1.1-4.8-2.1-7.1-3.2c0.1-0.5,0.2-0.9,0.4-1.4c6,1.3,12,2.6,18.5,3.9
			C31.4,54,28.8,54.5,26.1,55z"/>
		<path d="M11.9,33.8c6,0,13.6,0,21.2,0c0,0.4-0.1,0.8-0.1,1.1C25.5,34.5,17.9,34.1,11.9,33.8z"/>
	</g>
</g>
</svg>
