<?xml version="1.0" encoding="utf-8"?>
<!-- Generator: Adobe Illustrator 28.0.0, SVG Export Plug-In . SVG Version: 6.00 Build 0)  -->
<svg version="1.1" id="Layer_1" xmlns="http://www.w3.org/2000/svg" xmlns:xlink="http://www.w3.org/1999/xlink" x="0px" y="0px"
	 viewBox="0 0 40 120" style="enable-background:new 0 0 40 120;" xml:space="preserve">
<style type="text/css">
	.st0{fill:#FFFFFF;}
</style>
<g>
	<g>
		<path class="st0" d="M40,18c0,34,0,68,0,102c-7.3,0-14.7,0-22,0c-1.5-4.5-3-9-4.5-13.5c0.7-0.3,1.4-0.7,2-1
			c1.3,1.9,3.6,3.7,3.9,5.7c0.8,6.1,4.4,5.1,8.6,4.5c-1.4-3.7-2.7-6.9-4.1-10.4c3.2,0.3,6,0.5,9.8,0.9c-2.8-4.1-5.4-5.9-9.3-6.2
			c-3.5-0.3-7-1.5-10.5-2.3c0.1-0.6,0.3-1.3,0.4-1.9c5.3,1.3,10.6,2.6,16,3.8c0.2-0.5,0.3-0.9,0.5-1.4c-2.1-1-4.4-1.9-6.3-3.2
			c-1.9-1.2-3.5-2.8-5.2-4.2c0.1-0.1,0.3-0.3,0.4-0.4c4.1,1.5,8.2,3,12.3,4.5c0.3-0.6,0.6-1.3,0.9-1.9c-4.6-2.7-9.2-5.3-13.7-8
			c5.5,0,9.3,6,16.9,2.9c-6-2.6-10.8-4.6-16.8-7.1c4.9-0.9,8.8-1.6,12.6-2.3c-5,0-10,0-15.6,0c3.7-1.7,6.9-3.3,10-4.7
			c-5.7-1-11.1-1.9-16.5-2.9c-0.1,0.4-0.2,0.8-0.3,1.2c1.7,0.9,3.4,1.7,6.3,3.1c-5.1,1.6-9.2,2.9-13.3,4.2c0,0.4,0,0.7,0.1,1.1
			c2.3,0.3,4.5,0.5,7.4,0.9c-1.3,0.8-2.1,1.3-3.5,2.1c2.1,0.4,3.1,0.6,4,0.8c-7.9,5.2-2.9,11.4-1.2,17.5c-0.9,0.3-1.8,0.3-2.3,0.7
			c-1.4,1.4-3.7,3-3.6,4.3c0.3,2.8,1.3,7.1,3.1,7.7c3.1,1.1,4.1,2.7,4.6,5.4c-3.7,0-7.3,0-11,0C0,80,0,40,0,0c2.3,0,4.7,0,7,0
			C5.2,3.6,3.5,7.2,1.6,10.8C0,14,1.1,15.3,3.3,15.2c0.1,2.6-0.5,5.6,0.7,7c1.1,1.2,4.6,1.5,6.4,0.7C19.9,19.1,30.1,19.2,40,18z
			 M13.9,55c-3.1,1.2-6.2,2.5-10,4c3.9,0,7.1-0.2,10.2,0.1c3,0.3,6,1.1,9,1.7c-0.1,0.3-0.1,0.6-0.2,0.8c-4.5-0.5-9-1.1-13.5-1.6
			c-0.1,0.5-0.1,1-0.2,1.5c8,1.6,16,3.3,24,4.9c0.1-0.5,0.2-1,0.4-1.5c-2.2-0.8-4.5-1.5-7.3-2.4c2-0.2,3.5-0.4,5-0.6
			c0-0.3,0.1-0.7,0.1-1c-3.8-1.1-7.6-2.2-11.5-3.4c3.4-1.2,6.8-2.5,10.2-3.7c0-0.3-0.1-0.6-0.1-0.9c-4.3,0.4-8.6,0.7-12.9,1.1
			c2.4-1.1,4.7-2.1,7.1-3.2c-0.2-0.4-0.3-0.9-0.5-1.3c-5.9,1.3-11.8,2.6-18.2,4C8.6,54,11.2,54.5,13.9,55z M4.1,26.8
			c0,0.7,0,1.4,0,2.1c10.2,3.8,20.5,4.3,30.9-0.1c-5.7,0.5-11.4,1-17.1,1.4c0-0.3,0-0.5-0.1-0.8c2.8-0.9,5.5-1.8,8.3-2.7
			c-0.1-0.2-0.2-0.5-0.3-0.7c-1.6-0.2-3.2-0.3-4.8-0.5c0-0.1,0-0.3,0.1-0.4c3-0.6,5.9-1.2,8.9-1.7c-0.1-0.5-0.2-1-0.3-1.5
			C21.2,23.6,12.6,25.2,4.1,26.8z M9.2,42.8c1.6,0.2,3.1,0.4,4.7,0.5c0,0.2-0.1,0.4-0.1,0.5c-2.1,0.1-4.2,0.2-6.4,0.3
			c7.2,2.4,14.3,5.7,22.5,2.3C23.4,41.4,16.2,41.8,9.2,42.8z M9.5,35.4c-0.1,0.7-0.3,1.5-0.4,2.2c8.9,2,17.8,4,26.7,6
			c0.1-0.7,0.3-1.3,0.4-2C27.3,39.5,18.4,37.4,9.5,35.4z M28,71.9c-2.3-4.9-12.5-8.3-18.4-6.5C15.8,67.6,21.9,69.7,28,71.9z
			 M29.9,33.7c-7.7-0.2-15.5-1.5-23,1.3C14.6,34.5,22.3,34.1,29.9,33.7z"/>
		<path d="M11,120c-0.5-2.7-1.5-4.3-4.6-5.4c-1.8-0.7-2.8-5-3.1-7.7c-0.1-1.3,2.2-3,3.6-4.3c0.4-0.4,1.3-0.5,2.3-0.7
			c-1.7-6.1-6.7-12.3,1.2-17.5c-0.9-0.2-1.9-0.4-4-0.8c1.4-0.8,2.2-1.3,3.5-2.1c-2.8-0.3-5.1-0.6-7.4-0.9c0-0.4,0-0.7-0.1-1.1
			c4.1-1.3,8.3-2.6,13.3-4.2c-2.8-1.4-4.5-2.3-6.3-3.1c0.1-0.4,0.2-0.8,0.3-1.2c5.4,0.9,10.8,1.9,16.5,2.9c-3.1,1.5-6.3,3-10,4.7
			c5.6,0,10.7,0,15.6,0c-3.8,0.7-7.7,1.4-12.6,2.3c6,2.6,10.8,4.6,16.8,7.1C28.3,91,24.6,84.9,19.1,85c4.6,2.7,9.2,5.3,13.7,8
			c-0.3,0.6-0.6,1.3-0.9,1.9c-4.1-1.5-8.2-3-12.3-4.5c-0.1,0.1-0.3,0.3-0.4,0.4c1.7,1.4,3.3,3,5.2,4.2c2,1.3,4.2,2.1,6.3,3.2
			c-0.2,0.5-0.3,0.9-0.5,1.4c-5.3-1.3-10.6-2.6-16-3.8c-0.1,0.6-0.3,1.3-0.4,1.9c3.5,0.8,7,2,10.5,2.3c4,0.4,6.5,2.2,9.3,6.2
			c-3.8-0.3-6.6-0.6-9.8-0.9c1.4,3.5,2.7,6.8,4.1,10.4c-4.2,0.5-7.9,1.6-8.6-4.5c-0.3-2-2.5-3.8-3.9-5.7c-0.7,0.3-1.4,0.7-2,1
			c1.5,4.5,3,9,4.5,13.5C15.7,120,13.3,120,11,120z"/>
		<path d="M40,18c-9.9,1.2-20.1,1.1-29.6,4.9c-1.8,0.7-5.3,0.5-6.4-0.7c-1.2-1.4-0.5-4.4-0.7-7C1.1,15.3,0,14,1.6,10.8
			C3.5,7.2,5.2,3.6,7,0c2.7,0,5.3,0,8,0c-2.3,3.3-4.5,6.6-7.2,10.4c3.7-0.6,6-0.9,8.3-1.4C17.8,8.6,20,8.5,21,7.3
			c2.9-3.4,6.4-3.6,10.6-3.2c-4,3.5-7.6,6.8-12.2,10.8c3.2,0,5,0,7.4,0c-1.3,1.1-2.2,1.9-3.6,3c3.2-0.4,5.8-0.9,8.3-1
			c2.8-0.2,5.6,0,8.5,0C40,17.3,40,17.7,40,18z"/>
		<path class="st0" d="M40,17c-2.8,0-5.7-0.1-8.5,0c-2.6,0.1-5.1,0.6-8.3,1c1.4-1.2,2.2-1.9,3.6-3c-2.4,0-4.2,0-7.4,0
			c4.5-4,8.2-7.3,12.2-10.8C27.4,3.8,23.8,3.9,21,7.3C20,8.5,17.8,8.6,16.1,9c-2.3,0.5-4.6,0.8-8.3,1.4C10.5,6.6,12.7,3.3,15,0
			c8.2,0,16.5,0,25,0C40,5.7,40,11.3,40,17z"/>
		<path d="M17,53.9c4.3-0.4,8.6-0.7,12.9-1.1c0,0.3,0.1,0.6,0.1,0.9c-3.4,1.2-6.9,2.5-10.2,3.7c3.9,1.1,7.7,2.3,11.5,3.4
			c0,0.3-0.1,0.7-0.1,1c-1.5,0.2-3,0.3-5,0.6c2.8,0.9,5.1,1.7,7.3,2.4c-0.1,0.5-0.2,1-0.4,1.5c-8-1.6-16-3.3-24-4.9
			c0.1-0.5,0.1-1,0.2-1.5c4.5,0.5,9,1.1,13.5,1.6c0.1-0.3,0.1-0.6,0.2-0.8c-3-0.6-5.9-1.4-9-1.7C11,58.8,7.8,59,3.9,59
			c3.8-1.5,6.9-2.7,10-4C14.9,54.7,16,54.3,17,53.9z"/>
		<path d="M4.1,26.8c8.5-1.6,17.1-3.2,25.6-4.7c0.1,0.5,0.2,1,0.3,1.5c-3,0.6-5.9,1.2-8.9,1.7c0,0.1,0,0.3-0.1,0.4
			c1.6,0.2,3.2,0.3,4.8,0.5c0.1,0.2,0.2,0.5,0.3,0.7c-2.8,0.9-5.5,1.8-8.3,2.7c0,0.3,0,0.5,0.1,0.8c5.7-0.5,11.4-1,17.1-1.4
			c-10.4,4.3-20.7,3.9-30.9,0.1C4.1,28.2,4.1,27.5,4.1,26.8z"/>
		<path d="M9.2,42.8c7.1-1,14.2-1.4,20.8,3.7c-8.2,3.4-15.3,0.1-22.5-2.3c2.1-0.1,4.2-0.2,6.4-0.3c0-0.2,0.1-0.4,0.1-0.5
			C12.3,43.1,10.7,43,9.2,42.8z"/>
		<path d="M9.5,35.4c8.9,2.1,17.8,4.2,26.7,6.2c-0.1,0.7-0.3,1.3-0.4,2c-8.9-2-17.8-4-26.7-6C9.2,36.8,9.4,36.1,9.5,35.4z"/>
		<path d="M28,71.9c-6.1-2.2-12.2-4.4-18.4-6.5C15.5,63.6,25.7,67,28,71.9z"/>
		<path d="M17,53.9c-1.1,0.4-2.1,0.8-3.2,1.1c-2.6-0.5-5.3-1.1-8.4-1.7c6.4-1.4,12.3-2.7,18.2-4c0.2,0.4,0.3,0.9,0.5,1.3
			C21.8,51.7,19.4,52.8,17,53.9z"/>
		<path d="M29.9,33.7c-7.7,0.4-15.3,0.8-23,1.3C14.5,32.1,22.2,33.4,29.9,33.7z"/>
	</g>
</g>
</svg>
