<?xml version="1.0" encoding="utf-8"?>
<!-- Generator: Adobe Illustrator 28.0.0, SVG Export Plug-In . SVG Version: 6.00 Build 0)  -->
<svg version="1.1" id="Layer_1" xmlns="http://www.w3.org/2000/svg" xmlns:xlink="http://www.w3.org/1999/xlink" x="0px" y="0px"
	 viewBox="0 0 160 40" style="enable-background:new 0 0 160 40;" xml:space="preserve">
<style type="text/css">
	.st0{fill:#FFFFFF;}
</style>
<g>
	<g>
		<path d="M136,0c1,0,2,0,3,0c3.6,2.3,3.9,5.9,3.7,9.7c-0.2,3.1-0.3,6.3-0.4,9.4c0.6,0.1,1.2,0.2,1.8,0.3c-1.1-3.8-1.5-8,3.4-8
			c5.5,0,5.6,4.9,5.6,8.7c2.5,1.5,4.7,2.7,6.9,4c0,0.3,0,0.7,0,1c-1,1-1.8,2.2-3,2.8c-5,2.6-7.5,11.5-15.6,6.5
			c-0.1-0.1-0.6,0.4-0.8,0.4c-2.9-0.1-5.7-0.2-8.6-0.3c-3.1,0.1-6.2,1.7-9.4,2.1c-1.5,0.2-4.3-1.4-4.8-2.8c-0.9-2.7-2-2.1-3.6-1.1
			c-4,2.4-8.1,4.9-12.1,7.3c-1.3,0-2.7,0-4,0c-2.8-3.2-3.3-5.8,2.3-7.5c-3.5-0.2-7-0.4-9.3,1.2c-5.1,3.4-10.4,4.2-15.9,2.8
			c-3.3-0.9-6.1-4.2-9.7-0.7c-0.2,0.2-0.9-0.1-1.3-0.2c-6.6-1.3-13.2-2.5-19.5-3.8c1.7,3,0.9,5.3-2.6,5.1c-5-0.3-9.9-1.5-14.9-2.3
			c-1.3-0.2-2.6-0.6-3.9-0.5c-2.9,0.2-6.1,1.5-8.7,0.7C10.1,33.5,4.2,36.2,1,29.9c1.9-0.9,3.8-1.7,5.5-2.5
			c-1.1-3.8-4.1-7.6-1.1-11.9c-1.9-1.6-3.7-3-5.4-4.5c0-0.3,0-0.7,0-1c1.9-1.2,3.9-3.5,5.7-3.3c2,0.1,4,2.4,6.2,3.9
			C11.3,7.3,11.9,5,15.7,5c3.8-0.1,5.1,1.7,5.4,5.4c0.2,3.2,1.5,6.4,2.4,9.5c0.5-0.2,1.1-0.3,1.6-0.5c-0.4-1.5-0.4-3.3-1.2-4.4
			c-1.6-1.9-2-3.9,0.2-4.9c1.5-0.7,3.9-0.3,5.7,0.2c1,0.3,1.9,1.5,2.8,2.4c3.6-5,7.4-5.2,10.1-0.7c1.6-5.2,5.1-6.4,9.9-4.2
			C55.4,7,58.4,6,61,6.7c2.8,0.8,5.2,3.1,7.8,4.7c4.9-4.6,12.5-3.9,17.7,1.4c-1.1-2.9-2.3-5.9-3.4-8.8c5.3-3.8,6.8-3.2,11.2,4.6
			c6.8-2.9,8.7-1.6,8.7,6c0,2-0.3,4.1,0.1,6c0.5,2.5,1.7,4.8,2.9,7.9c-0.8-5.3-1.3-9.3-2-13.4c-0.6-3.7,1.2-6,4.7-5.9
			c3.2,0.1,4.7,2.4,4.4,5.8c-0.2,2.5,0.2,5,0.4,7.5c0.5-4.2,0.6-8.3,0.5-12.4c-0.1-3.9,2.5-4.8,5.1-3.8c2,0.7,3.4,3.1,5.8,5.5
			c2.2-1.1,5.5-2.8,8.7-4.5C131.9,4.1,133.3,1.8,136,0z M52.9,10.2c-0.3,0.7-0.7,1.5-1,2.2c3.8,0.2,3.6,8.8,10.4,3.5
			C59,14,56,12.1,52.9,10.2z"/>
		<path class="st0" d="M136,0c-2.7,1.8-4.1,4.1-2.4,7.3c-3.3,1.7-6.5,3.3-8.7,4.5c-2.4-2.4-3.8-4.8-5.8-5.5
			c-2.6-0.9-5.3-0.1-5.1,3.8c0.1,4.1,0,8.1-0.5,12.4c-0.2-2.5-0.6-5-0.4-7.5c0.3-3.5-1.1-5.7-4.4-5.8c-3.5-0.1-5.3,2.2-4.7,5.9
			c0.6,4.1,1.2,8.1,2,13.4c-1.2-3.1-2.3-5.5-2.9-7.9c-0.4-1.9-0.1-4-0.1-6c0-7.5-1.9-8.9-8.7-6c-4.5-7.8-5.9-8.3-11.2-4.6
			c1.1,2.9,2.2,5.9,3.4,8.8c-5.1-5.4-12.7-6.1-17.7-1.4c-2.6-1.6-5-3.9-7.8-4.7C58.4,6,55.4,7,52.6,7.8c-4.9-2.2-8.3-1-9.9,4.2
			c-2.8-4.5-6.5-4.3-10.1,0.7c-0.9-0.8-1.7-2.1-2.8-2.4c-1.8-0.4-4.2-0.9-5.7-0.2c-2.2,1-1.7,3-0.2,4.9c0.9,1.1,0.9,2.9,1.2,4.4
			c-0.5,0.2-1.1,0.3-1.6,0.5c-0.8-3.2-2.1-6.3-2.4-9.5c-0.3-3.7-1.6-5.5-5.4-5.4c-3.9,0.1-4.5,2.3-3.8,5.6C9.7,9.1,7.8,6.8,5.7,6.7
			C3.9,6.5,1.9,8.8,0,10C0,6.7,0,3.3,0,0C45.3,0,90.7,0,136,0z"/>
		<path class="st0" d="M0,11c1.8,1.5,3.5,2.9,5.4,4.5c-3,4.3-0.1,8,1.1,11.9C4.8,28.1,2.9,29,1,29.9c3.2,6.3,9,3.6,13.4,4.9
			c2.6,0.8,5.8-0.5,8.7-0.7c1.3-0.1,2.6,0.3,3.9,0.5c5,0.8,9.9,2,14.9,2.3c3.5,0.2,4.3-2.1,2.6-5.1c6.3,1.2,12.9,2.5,19.5,3.8
			c0.5,0.1,1.1,0.4,1.3,0.2c3.6-3.6,6.4-0.2,9.7,0.7c5.5,1.4,10.8,0.6,15.9-2.8c2.3-1.5,5.8-1.4,9.3-1.2c-5.6,1.7-5.1,4.3-2.3,7.5
			c-32.5,0-65.1,0-98,0C0,30.3,0,20.7,0,11z"/>
		<path class="st0" d="M102,40c4-2.4,8.1-4.9,12.1-7.3c1.6-1,2.7-1.6,3.6,1.1c0.5,1.4,3.3,3,4.8,2.8c3.3-0.4,6.4-2,9.4-2.1
			c2.9,0.1,5.7,0.2,8.6,0.3c0.3,0,0.7-0.5,0.8-0.4c8.2,5,10.6-3.9,15.6-6.5c1.2-0.6,2-1.9,3-2.8c0,5,0,10,0,15
			C140.7,40,121.3,40,102,40z"/>
		<path class="st0" d="M160,24c-2.2-1.3-4.4-2.5-6.9-4c0-3.8,0-8.7-5.6-8.7c-4.9,0-4.5,4.2-3.4,8c-0.6-0.1-1.2-0.2-1.8-0.3
			c0.1-3.1,0.3-6.3,0.4-9.4c0.2-3.8-0.2-7.3-3.7-9.7c6.9,0,13.8,0,21,0C160,8,160,16,160,24z"/>
		<path class="st0" d="M52.9,10.2c3,1.9,6.1,3.7,9.4,5.7c-6.8,5.3-6.6-3.4-10.4-3.5C52.3,11.7,52.6,11,52.9,10.2z"/>
	</g>
</g>
</svg>
