<?xml version="1.0" encoding="utf-8"?>
<!-- Generator: Adobe Illustrator 28.0.0, SVG Export Plug-In . SVG Version: 6.00 Build 0)  -->
<svg version="1.1" id="Layer_1" xmlns="http://www.w3.org/2000/svg" xmlns:xlink="http://www.w3.org/1999/xlink" x="0px" y="0px"
	 viewBox="0 0 160 40" style="enable-background:new 0 0 160 40;" xml:space="preserve">
<style type="text/css">
	.st0{fill:#FFFFFF;}
</style>
<g>
	<g>
		<path d="M28,40c-1.7,0-3.3,0-5,0c-7.7-2.3-15.3-4.7-23-7c0-0.3,0-0.7,0-1c2.5,0,4.9,0,7.8,0c-1.7-3.7-3.7-6.8-4.7-10.2
			c-1-3.3-1.2-7-1.7-10.4c3.6,0,7,0,10.7,0c-0.9,7.9,1,14.7,5.9,20.5c3.7,4.4,8.5,8.2,12.6,2.7c-13.4-7.5-19-17-17.1-29.2
			c3.1,0,6.1,0,8.2,0c1.7,6.4,3.2,12.2,4.7,18c0.2-0.1,0.4-0.2,0.6-0.4c0-6.6,0-13.1,0-19.7c2.8,0,6.3,0,9.5,0
			c0.5,6.6,0.7,12.8,1.6,19c0.6,3.7,2.1,7.5,7.4,5.1c-1.7-5.7-3.5-11.4-5.2-17.1c3.8,0,7.2,0,9.8,0c1.9,5.8,3.5,11,5.2,16.2
			c0.4-0.1,0.9-0.2,1.3-0.3C57.8,16.9,56.8,8,51,0c3.7,0,7.3,0,11,0c1.8,5,3.7,10,5.7,15.5c0.7-3,1.2-5.5,1.8-8.5c3,0,6.1,0,9.5,0
			c-0.3-1.9-0.5-3.2-0.8-4.8c6.6-0.5,13.1-0.9,19.7-1.3c-0.2,10.4,3.9,18.5,7.9,26.8c2.9,6,7.3,8.7,14.7,9.3
			c-9.9-8.9-12.2-19.8-11.8-31.7c2.8,0,5.9,0,9.1,0c2,10.5,1.3,21.9,9.9,28.8c-1.9-8.4-3.9-17.5-6-27.1c5.3,0,9.3,0.3,13.3-0.1
			c4.7-0.4,7.5,1.8,9.3,5.7c1.2,2.7,2.9,3.9,5.8,3.3c5.9-1.3,7.9,2.3,9,7c0.3,1,0.7,2,1,3c0,1,0,2,0,3c-0.4,1.2-0.8,2.3-1.1,3.5
			c-1.2,4.6-3.3,7.4-8.9,6.7c-3.2-0.4-6.6,0.5-10,0.9c-2.3,0-4.7,0-7,0c-3-0.5-5.9-1.3-8.9-1.4c-6.8-0.2-13.6-0.4-20.3,0.1
			c-8.4,0.7-16.3,0.9-22.3-6.4c-6.9,5.8-12.2,6.7-20.9,5.1C49.6,35.3,38.6,35.3,28,40z M91.1,30.9c2,5,6.6,6.8,10.9,4
			c-3.9-1.4-7.4-2.6-11-3.9c-4.2-6.3-8.4-12.6-12.1-18.1c-2.4,5.6-5.5,12.8-8.4,19.3c8.6-5.4,12.8-6,13.5-1.4
			C86.3,30.9,88.7,30.9,91.1,30.9z M135.2,12.3c-1,0.2-1.9,0.4-2.9,0.6c1.8,6.8,3.5,13.6,5.3,20.4c0.8-0.2,1.7-0.4,2.5-0.6
			C138.5,25.8,136.8,19,135.2,12.3z"/>
		<path class="st0" d="M160,26c-0.4-1-0.8-2-1-3c-1.2-4.7-3.1-8.3-9-7c-2.8,0.6-4.6-0.7-5.8-3.3c-1.7-4-4.6-6.2-9.3-5.7
			c-4,0.3-8,0.1-13.3,0.1c2.1,9.5,4.1,18.6,6,27.1c-8.6-7-7.9-18.3-9.9-28.8c-3.2,0-6.3,0-9.1,0c-0.3,11.9,1.9,22.9,11.8,31.7
			c-7.4-0.6-11.8-3.2-14.7-9.3c-4-8.3-8.1-16.4-7.9-26.8c-6.6,0.5-13.1,0.9-19.7,1.3C78.5,3.8,78.7,5.1,79,7c-3.4,0-6.5,0-9.5,0
			c-0.6,2.9-1.2,5.5-1.8,8.5C65.7,10,63.8,5,62,0c32.7,0,65.3,0,98,0C160,8.7,160,17.3,160,26z"/>
		<path class="st0" d="M51,0c5.8,8,6.8,16.9,5.6,26.3c-0.4,0.1-0.9,0.2-1.3,0.3c-1.7-5.2-3.4-10.5-5.2-16.2c-2.7,0-6,0-9.8,0
			c1.8,5.7,3.5,11.4,5.2,17.1c-5.3,2.4-6.8-1.5-7.4-5.1c-0.9-6.2-1.1-12.4-1.6-19c-3.2,0-6.6,0-9.5,0c0,6.5,0,13.1,0,19.7
			c-0.2,0.1-0.4,0.2-0.6,0.4c-1.5-5.8-3-11.7-4.7-18c-2.1,0-5.2,0-8.2,0C11.6,17.5,17.2,27,30.6,34.5c-4.1,5.5-8.9,1.7-12.6-2.7
			c-4.9-5.7-6.8-12.6-5.9-20.5c-3.7,0-7.1,0-10.7,0c0.5,3.5,0.7,7.1,1.7,10.4c1,3.4,3,6.5,4.7,10.2c-2.9,0-5.4,0-7.8,0
			C0,21.3,0,10.7,0,0C17,0,34,0,51,0z"/>
		<path class="st0" d="M28,40c10.6-4.7,21.6-4.7,32.6-2.6c8.7,1.6,14,0.7,20.9-5.1c6,7.3,13.9,7,22.3,6.4c6.7-0.5,13.5-0.3,20.3-0.1
			c3,0.1,5.9,0.9,8.9,1.4C98,40,63,40,28,40z"/>
		<path class="st0" d="M0,33c7.7,2.3,15.3,4.7,23,7c-7.7,0-15.3,0-23,0C0,37.7,0,35.3,0,33z"/>
		<path class="st0" d="M140,40c3.3-0.3,6.8-1.3,10-0.9c5.6,0.8,7.7-2.1,8.9-6.7c0.3-1.2,0.8-2.3,1.1-3.5c0,3.7,0,7.3,0,11
			C153.3,40,146.7,40,140,40z"/>
		<path class="st0" d="M91.1,30.9c-2.4,0-4.7,0-7.1,0c-0.6-4.6-4.9-4-13.5,1.4c2.8-6.5,5.9-13.7,8.4-19.3
			c3.7,5.5,7.9,11.8,12.1,18.1L91.1,30.9z"/>
		<path class="st0" d="M135.2,12.3c1.7,6.8,3.3,13.5,5,20.3c-0.8,0.2-1.7,0.4-2.5,0.6c-1.8-6.8-3.5-13.6-5.3-20.4
			C133.3,12.6,134.2,12.5,135.2,12.3z"/>
		<path class="st0" d="M90.9,31.1c3.6,1.3,7.2,2.5,11,3.9c-4.3,2.8-8.9,1-10.9-4C91.1,30.9,90.9,31.1,90.9,31.1z"/>
	</g>
</g>
</svg>
