<?xml version="1.0" encoding="utf-8"?>
<!-- Generator: Adobe Illustrator 28.0.0, SVG Export Plug-In . SVG Version: 6.00 Build 0)  -->
<svg version="1.1" id="Layer_1" xmlns="http://www.w3.org/2000/svg" xmlns:xlink="http://www.w3.org/1999/xlink" x="0px" y="0px"
	 viewBox="0 0 160 40" style="enable-background:new 0 0 160 40;" xml:space="preserve">
<style type="text/css">
	.st0{fill:#FFFFFF;}
</style>
<g>
	<g>
		<path d="M105,0c3.3,0,6.7,0,10,0c1,0.7,2,1.8,3.1,1.9c2.9,0.3,5.8,0.1,8.9,0.1c1.2,6.4,2.3,12.2,3.7,19.2c0.8-4.4,1.4-7.7,2-11.3
			c3.1,0.2,6.2,0.4,9.4,0.6c-0.4,2.7-0.7,5.1-1.1,7.6c0.5,0.1,0.9,0.1,1.4,0.2c0.6-5.2,1.2-10.4,1.8-15.8c2.3,0,5.5,0,8.5,0
			c2.7,7.4-1.5,13.5-2.7,20.4c3.1,0.2,5.9,0.3,8.9,0.5c-2.1,7.6-6.5,12.9-12.9,16.7c-3,0-6,0-9,0c1.2-1.1,2.4-2.2,3.6-3.3
			c-0.2-0.4-0.3-0.8-0.5-1.2c-7.5,0.9-15,1.8-23,2.7c0.3-1.7,0.5-2.8,0.9-5.1c-3.5,1.2-6,2.8-8.5,2.8c-13.7,0.2-27.5,0.2-41.2,0.1
			c-3.1,0-6.2-0.9-9.3-0.9c-9-0.1-18-0.2-27,0c-7.9,0.1-14.6-2.6-20.8-7.3C7.7,25.2,3.7,23.2,0,21c0-0.3,0-0.7,0-1
			c7.8-0.9,14.4,1.2,20.4,6.5c3.4,3,8.1,5.8,12.5,6.2c12.9,1.4,26,1.8,39,2.2C83,35.3,94,35,105.1,35c1.6,0,3.1-0.2,6-0.3
			c-1.9-1.3-2.7-2.3-3.6-2.4c-5-0.9-10.1-2-15.1-2.2c-13.6-0.6-27.2-0.4-40.8-1.2C40.4,28.2,29.7,25,20.3,18.6
			c-5.7-3.9-11-8.2-16.5-12.3C3,5.8,2.2,5.2,1.1,4.4c7.9-1.8,13.5,1.8,18.7,6c7.4,6.1,15,11.7,24.2,14.5c17.6,5.3,35.8,4.2,54,3.4
			c-8.1-2.2-16.3-3.9-24.5-5.2c-6.8-1.1-14-0.6-20.4-2.8c-10.5-3.5-20.4-8.6-30.6-13c6.8-2.2,12.1-0.2,17.7,3c7,4,14.6,7.4,22.4,9.4
			c8.3,2.1,17.2,2.2,25.8,3.3c4,0.5,7.9,1.3,11.9,2c0.1-0.4,0.3-0.9,0.4-1.3c-3.2-1.6-6.2-3.6-9.5-4.7c-10.6-3.5-21.4-6.5-32.1-10
			c-4.6-1.5-9.1-3.7-13.6-5.6C45.7,2.9,45.9,2.5,46,2c2.5,0,4.9,0,7.4,0c0.6,0,1.2,0.4,1.8,0.6c17.1,6,34.2,11.9,51.4,17.9
			C98.9,5.6,86.3,0.6,70,2.8c15.6-2.6,30.8-4.3,41.6,11.1c0.3-0.4,0.6-0.7,1-1.1C110,8.5,107.5,4.3,105,0z"/>
		<path class="st0" d="M105,0c2.5,4.3,5,8.5,7.6,12.8c-0.3,0.4-0.6,0.7-1,1.1C100.9-1.5,85.6,0.2,70,2.8
			c16.3-2.1,28.9,2.8,36.6,17.8c-17.2-6-34.3-12-51.4-17.9c-0.6-0.2-1.2-0.6-1.8-0.6C50.9,2,48.5,2,46,2c-0.2,0.5-0.3,0.9-0.5,1.4
			c4.5,1.9,8.9,4.1,13.6,5.6c10.6,3.5,21.4,6.5,32.1,10c3.3,1.1,6.3,3.1,9.5,4.7c-0.1,0.4-0.3,0.9-0.4,1.3c-4-0.7-7.9-1.5-11.9-2
			c-8.6-1.1-17.5-1.2-25.8-3.3c-7.8-2-15.4-5.4-22.4-9.4c-5.6-3.2-10.9-5.2-17.7-3c10.2,4.4,20.1,9.5,30.6,13
			c6.4,2.1,13.6,1.7,20.4,2.8c8.3,1.3,16.4,3,24.5,5.2c-18.2,0.8-36.3,2-54-3.4c-9.2-2.8-16.9-8.4-24.2-14.5
			c-5.1-4.2-10.8-7.8-18.7-6C2.2,5.2,3,5.8,3.7,6.3c5.5,4.1,10.9,8.4,16.5,12.3c9.4,6.4,20.1,9.6,31.2,10.3
			c13.6,0.9,27.2,0.6,40.8,1.2c5.1,0.2,10.1,1.3,15.1,2.2c0.9,0.2,1.7,1.1,3.6,2.4c-2.9,0.2-4.4,0.3-6,0.3C94,35,83,35.3,72,34.9
			c-13-0.4-26.1-0.8-39-2.2c-4.4-0.5-9.1-3.2-12.5-6.2C14.4,21.2,7.8,19.1,0,20C0,13.3,0,6.7,0,0C35,0,70,0,105,0z"/>
		<path class="st0" d="M0,21c3.7,2.2,7.7,4.2,11.2,6.8c6.2,4.6,12.9,7.4,20.8,7.3c9-0.1,18-0.1,27,0c3.1,0,6.2,0.9,9.3,0.9
			c13.7,0.1,27.5,0.2,41.2-0.1c2.6,0,5.1-1.6,8.5-2.8c-0.4,2.4-0.6,3.5-0.9,5.1c8-0.9,15.5-1.8,23-2.7c0.2,0.4,0.3,0.8,0.5,1.2
			c-1.2,1.1-2.4,2.2-3.6,3.3c-45.7,0-91.3,0-137,0C0,33.6,0,27.3,0,21z"/>
		<path class="st0" d="M146,40c6.3-3.9,10.8-9.2,12.9-16.7c-3-0.2-5.9-0.3-8.9-0.5c1.2-6.9,5.4-13,2.7-20.4c-3.1,0-6.2,0-8.5,0
			c-0.6,5.5-1.2,10.6-1.8,15.8c-0.5-0.1-0.9-0.1-1.4-0.2c0.3-2.4,0.7-4.8,1.1-7.6c-3.3-0.2-6.3-0.4-9.4-0.6c-0.6,3.6-1.2,6.9-2,11.3
			c-1.3-6.9-2.4-12.8-3.7-19.2c-3.1,0-6,0.2-8.9-0.1C117,1.8,116,0.7,115,0c15,0,30,0,45,0c0,13.3,0,26.7,0,40
			C155.3,40,150.7,40,146,40z"/>
	</g>
</g>
</svg>
