<?xml version="1.0" encoding="utf-8"?>
<!-- Generator: Adobe Illustrator 28.0.0, SVG Export Plug-In . SVG Version: 6.00 Build 0)  -->
<svg version="1.1" id="Layer_1" xmlns="http://www.w3.org/2000/svg" xmlns:xlink="http://www.w3.org/1999/xlink" x="0px" y="0px"
	 viewBox="0 0 40 120" style="enable-background:new 0 0 40 120;" xml:space="preserve">
<style type="text/css">
	.st0{fill:#FFFFFF;}
</style>
<g>
	<g>
		<path d="M27,0c2.3,0,4.7,0,7,0c0.5,2.2,1.1,4.3,1.6,6.7c-1.2,0.2-2.2,0.4-3,0.6c1.3,2.3,2.6,4.5,4.1,7.2c-1.9,0.4-3.3,0.2-4,0.9
			c-3.4,3.2-3.2,3.1-7,1.3c-1.2-0.6-2.9-0.6-4.2-0.2c-1.3,0.4-2.4,1.6-4.1,2.7c-0.5,0.7-1.6,1.9-2.3,3.4c-0.6,1.2-1.1,2.8-0.7,4
			c0.2,0.6,2.2,0.8,3.6,1.2c-1.7-5.7,0.2-7.9,5.4-7.1c0.9,0.1,1.9-0.1,2.8-0.3c3.2-0.6,6.5-1.2,9.7-1.9c0.1,0.3,0.1,0.6,0.2,0.9
			c-2.1,1-4.2,2-5.9,2.9c1.7,2.3,3.2,4.3,5.3,7.1c-5.8,1.2-10.4,2.2-15.1,3.1c-0.8,1.3-2,2-3.2,2.5c-1.7,0.8-3.3,1.5-5,2.2
			c1.5,1.5,2.8,3.5,4.6,4.5c1.4,0.7,3.4,0.1,5.1,0.1c0.7-3.7-0.7-8,4.3-8.7c3.4-0.5,7.1-0.4,7.8,4.1c-1.8,0.8-3.5,1.4-5.1,2.1
			c0.2,0.6,0.4,1.2,0.6,1.7c3,0,6,0,9.1,0c-2,1.6-5.5,1.4-5.9,2.5c-1.7,4.5-4.9,3.5-8.2,3.2c-0.2-1.1-0.4-2.2-0.7-3.6
			c-1.5,1.2-2.6,2.1-3.9,3.1c6.1,3.2,13.9,1.5,17.8,8.5c-2.7,0-5.1,0-7.4,0c-1,5,3.5,4.4,6.2,6c-3.2,0.6-6.1,1.1-8.9,1.7
			c-0.1,0.4-0.2,0.8-0.3,1.2c2.5,0.7,5.1,1.3,7.6,2c0,0.3,2.7,14.3,3,15c-2.1,0.4-4.2,0.7-7.1,1.2c3.2,2.6,5.6,4.6,7.9,6.6
			c-0.2,0.3-0.4,0.7-0.5,1c-3.2-0.7-6.5-1.4-9.8-2.1c0.3,1.9,0.5,3.6,0.8,5.8c-5.2-0.4-9.8-0.8-14.4-1.2c-0.2,0.6-0.3,1.1-0.5,1.7
			c2.8,1.1,5.7,2.2,8.4,3.2c-7.9,0.6-7.9,0.6-6.6,4.6c4-2.5,7.9-1.8,10.6,1.9c1.6-2.4,3-4.7-1.5-5.2c1.1-4.3,4.1-3.5,6.9-2.4
			c3.5,1.5,3.1,4.5,3.4,7.9c0.7,8.2,0,9.9-6.5,10.7c-2.6,2.5-4.2,4.2-5.9,5.8c-0.7,0-1.3,0-2,0c-0.5-0.3-1-0.8-1.5-1
			c-3.7-1-7.5-1.7-11.1-3c-3.4-1.3-4.8-5.6-2.6-6.8c2.7-1.6,5.7-2.7,7.4-3.5c-1.4-1.9-3.5-4.4-5.1-7.2c-1-1.7-0.9-4.1-1.9-5.9
			c-2.6-4.7-0.7-8.5,4.8-8.5c3.3,0,6.5,0.6,9.8,0.9c0.1-0.1,0.1-0.3,0.2-0.4c-5.8-1.7-11.6-3.3-17.2-4.9c0.7-4,1.5-7.9,2.1-11.9
			c0.1-0.6-0.2-1.4-0.6-1.8c-3.1-3.1-2.9-6,0.7-8.5c-4.2-6.8-2.9-9.6,5-11.5c0.8-0.2,1.4-1.4,2.5-2.5c-3.9,0.8-6.8,1.3-10.8,2.1
			c1.7-2.5,2.7-3.9,4.4-6.3c-2.9,0.3-5,0.5-7.1,0.7c0-0.7,0-1.3,0-2c4.1-1.7,8.2-3.4,12.4-5.1c-0.2-0.5-0.5-1.7-0.9-2.9
			c-3.1,0-5.9,0-8.8,0c0-2,0-3.8,0-5.7c3.6-0.8,7.3-1.7,6-7.1c-2-0.2-3.7-0.3-5.5-0.5c0-0.2,0-0.5,0.1-0.7c1.5,0,3,0,4.4,0
			c1.6,0,3.2,0,4.7,0c-0.8-1.3-1.7-2-2.6-1.9C6.4,14.1,6,11.8,6.1,9.5c0.2-4.4,4.2-7.9,8.6-7.4c4.4,0.5,8.8,1.4,13.6,2.2
			C27.8,2.7,27.4,1.4,27,0z M9.8,61.7c0.2,0.2,0.5,0.4,0.7,0.6c3.6-1.7,7.3-3.4,11.2-5.2c-3.8-1.6-6.6-2.8-10.2-4.3
			c1.4,2.4,2.3,4.1,2.9,5.2C12.8,59.4,11.3,60.5,9.8,61.7z M14.3,75.4c1.7-2.4,3-3.8,3.5-5.4c0.2-0.7-1.2-1.9-1.8-2.9
			c-1.3,1.4-2.9,2.6-3.8,4.2C11.9,71.8,13.1,73.3,14.3,75.4z M24.5,80.5c2.1,0,4,0,6.7,0c-2.8-2.5-4.9-4.3-8.1-7.2
			C23.7,76.7,24.1,78.7,24.5,80.5z"/>
		<path class="st0" d="M23,120c1.7-1.6,3.3-3.3,5.9-5.8c6.5-0.8,7.2-2.4,6.5-10.7c-0.3-3.4,0.2-6.4-3.4-7.9
			c-2.8-1.2-5.8-1.9-6.9,2.4c4.6,0.6,3.1,2.8,1.5,5.2c-2.7-3.7-6.6-4.4-10.6-1.9c-1.3-4-1.3-4,6.6-4.6c-2.7-1-5.5-2.1-8.4-3.2
			c0.2-0.6,0.3-1.1,0.5-1.7c4.6,0.4,9.2,0.8,14.4,1.2c-0.3-2.2-0.6-3.9-0.8-5.8c3.3,0.7,6.5,1.4,9.8,2.1c0.2-0.3,0.4-0.7,0.5-1
			c-2.4-2-4.8-3.9-7.9-6.6c2.8-0.5,4.9-0.9,7.1-1.2c-0.3-0.7-3.1-14.7-3-15c-2.6-0.7-5.1-1.3-7.6-2c0.1-0.4,0.2-0.8,0.3-1.2
			c2.9-0.5,5.7-1.1,8.9-1.7c-2.7-1.7-7.2-1.1-6.2-6c2.4,0,4.7,0,7.4,0c-3.9-7-11.8-5.3-17.8-8.5c1.3-1,2.4-2,3.9-3.1
			c0.3,1.5,0.5,2.5,0.7,3.6c3.3,0.3,6.5,1.3,8.2-3.2c0.4-1.1,3.9-0.9,5.9-2.5c-3,0-6,0-9.1,0c-0.2-0.6-0.4-1.2-0.6-1.7
			c1.6-0.7,3.3-1.4,5.1-2.1c-0.8-4.5-4.4-4.6-7.8-4.1c-4.9,0.7-3.6,5-4.3,8.7c-1.7,0-3.7,0.6-5.1-0.1c-1.8-1-3.1-2.9-4.6-4.5
			c1.7-0.7,3.4-1.4,5-2.2c1.3-0.6,2.5-1.2,3.2-2.5c4.7-1,9.3-1.9,15.1-3.1c-2-2.7-3.6-4.8-5.3-7.1c1.7-0.8,3.8-1.8,5.9-2.9
			c-0.1-0.3-0.1-0.6-0.2-0.9c-3.2,0.6-6.5,1.3-9.7,1.9c-0.9,0.2-1.9,0.4-2.8,0.3c-5.1-0.8-7,1.4-5.4,7.1c-1.5-0.4-3.5-0.6-3.6-1.2
			c-0.3-1.2,0.2-2.8,0.7-4c0.7-1.5,1.8-2.7,2.3-3.4c1.7-1.2,2.8-2.3,4.1-2.7c1.3-0.4,3-0.4,4.2,0.2c3.8,1.9,3.6,1.9,7-1.3
			c0.7-0.7,2.1-0.5,4-0.9c-1.5-2.6-2.8-4.8-4.1-7.2c0.9-0.2,1.9-0.4,3-0.6C35.1,4.3,34.5,2.2,34,0c2,0,4,0,6,0c0,40,0,80,0,120
			C34.3,120,28.7,120,23,120z"/>
		<path class="st0" d="M0,40c2.1-0.2,4.1-0.4,7.1-0.7c-1.7,2.4-2.7,3.8-4.4,6.3c4.1-0.8,6.9-1.4,10.8-2.1c-1.1,1.1-1.7,2.3-2.5,2.5
			c-7.9,1.9-9.2,4.7-5,11.5c-3.6,2.5-3.8,5.4-0.7,8.5c0.4,0.4,0.7,1.2,0.6,1.8c-0.6,4-1.4,7.9-2.1,11.9c5.6,1.6,11.4,3.3,17.2,4.9
			c-0.1,0.1-0.1,0.3-0.2,0.4c-3.3-0.3-6.5-0.9-9.8-0.9c-5.5,0-7.5,3.9-4.8,8.5c1,1.8,0.9,4.1,1.9,5.9c1.6,2.8,3.7,5.3,5.1,7.2
			c-1.6,0.8-4.6,1.9-7.4,3.5c-2.3,1.3-0.9,5.6,2.6,6.8c3.6,1.3,7.4,2,11.1,3c0.5,0.2,1,0.6,1.5,1c-7,0-14,0-21,0C0,93.3,0,66.7,0,40
			z"/>
		<path class="st0" d="M27,0c0.4,1.4,0.8,2.7,1.3,4.2c-4.8-0.8-9.2-1.7-13.6-2.2c-4.4-0.5-8.4,3-8.6,7.4c-0.1,2.4,0.3,4.7,3.7,4.6
			c0.9,0,1.9,0.6,2.6,1.9c-1.6,0-3.2,0-4.7,0c-1.5,0-3,0-4.4,0c0,0.2,0,0.5-0.1,0.7c1.8,0.2,3.6,0.3,5.5,0.5c1.3,5.4-2.3,6.3-6,7.1
			c0,1.9,0,3.7,0,5.7c2.9,0,5.7,0,8.8,0c0.4,1.2,0.8,2.4,0.9,2.9C8.2,34.6,4.1,36.3,0,38C0,25.3,0,12.7,0,0C9,0,18,0,27,0z"/>
		<path class="st0" d="M9.8,61.7c1.5-1.2,3-2.3,4.7-3.7c-0.6-1.1-1.6-2.8-2.9-5.2c3.5,1.5,6.3,2.7,10.2,4.3
			c-3.9,1.8-7.5,3.5-11.2,5.2C10.3,62.2,10,61.9,9.8,61.7z"/>
		<path class="st0" d="M14.3,75.4c-1.1-2.1-2.4-3.6-2.1-4.1c1-1.6,2.5-2.9,3.8-4.2c0.7,1,2,2.2,1.8,2.9C17.2,71.6,15.9,73,14.3,75.4
			z"/>
		<path class="st0" d="M24.5,80.5c-0.4-1.8-0.7-3.8-1.4-7.2c3.3,2.9,5.3,4.7,8.1,7.2C28.5,80.5,26.6,80.5,24.5,80.5z"/>
	</g>
</g>
</svg>
