<?xml version="1.0" encoding="utf-8"?>
<!-- Generator: Adobe Illustrator 28.0.0, SVG Export Plug-In . SVG Version: 6.00 Build 0)  -->
<svg version="1.1" id="Layer_1" xmlns="http://www.w3.org/2000/svg" xmlns:xlink="http://www.w3.org/1999/xlink" x="0px" y="0px"
	 viewBox="0 0 40 120" style="enable-background:new 0 0 40 120;" xml:space="preserve">
<style type="text/css">
	.st0{fill:#FFFFFF;}
</style>
<g>
	<g>
		<path d="M40,106c0,1.7,0,3.3,0,5c-1.6,4-4.7,3.2-7.4,2.7c-0.6-4.8-1.2-9.2-1.7-13.6c-0.4,0.1-0.8,0.1-1.2,0.2
			c-0.5,6.6-1.1,13.2-1.6,19.7c-2.3,0-4.7,0-7,0c1.5-6.9,0-13.2-1.5-20.1c-1.6-7.2-4.3-13.2-8.3-19.1c2.7,10.2,6.3,20.2,4.4,31
			c-3.8,0.3-7.7,1.2-5.6-4.8c0.2-0.5-0.2-1.2-0.4-1.9C7.3,95.9,5,86.8,2.9,77.6C1.7,72.4,1,67.2,0,62c0-4.3,0-8.7,0-13
			c1.3-6.6,2.6-13.1,3.8-19.5c2.9-0.3,5.3-0.5,8-0.8c-1.7-3.2-3.3-6.1-5.2-9.5c3,0,5.5,0,7.6,0c1.4,2.9,2.7,5.5,4,8.2
			c0-3.3-0.8-6.2-2.2-8.8C12.9,12.3,9.4,6.2,6,0c2.7,0,5.3,0,8,0c0.6,1.4,1,3.1,1.9,4.3c6.1,8.7,9.8,18.3,12.2,28.5
			c1.7,7.3,3.8,14.5,5.8,21.7c2.8,10.5,7.3,20.9,4.1,32.1C35.9,93.6,37.3,99.8,40,106z M13.4,29.8c-0.7,0.1-1.4,0.2-2.2,0.3
			c-1,4.5-2.1,9-3.2,13.9c4.7-1,5,2.3,6,5c1.9,4.8,3.9,9.6,5.9,14.4c0.7-0.2,1.4-0.5,2.1-0.7C19.1,51.8,16.3,40.8,13.4,29.8z
			 M28.6,92c0.5-0.1,1-0.2,1.4-0.3c1.3-9.6,2.1-19.2-1.3-28.6c-0.5,0-1,0-1.5,0c0,8.1,0,16.2,0,24.4c-0.4,0-0.8-0.1-1.2-0.1
			C27,88.9,27.8,90.5,28.6,92z M8.8,54.9C8.5,55,8.3,55.1,8,55.2c0,3,0,5.9,0,8.9c0,6.3,0.5,6.6,7.3,5.2C13.1,64.4,11,59.7,8.8,54.9
			z"/>
		<path class="st0" d="M40,106c-2.7-6.2-4.1-12.4-2.1-19.3c3.3-11.2-1.3-21.6-4.1-32.1c-1.9-7.2-4.1-14.4-5.8-21.7
			C25.7,22.6,21.9,13,15.9,4.3C15,3.1,14.6,1.4,14,0c8.7,0,17.3,0,26,0C40,35.3,40,70.7,40,106z"/>
		<path class="st0" d="M0,62c1,5.2,1.7,10.4,2.9,15.6c2.1,9.2,4.4,18.3,6.6,27.5c0.2,0.6,0.6,1.4,0.4,1.9c-2.1,6,1.9,5.2,5.6,4.8
			c1.9-10.8-1.7-20.8-4.4-31c4,5.9,6.7,11.9,8.3,19.1c1.5,6.8,3.1,13.2,1.5,20.1c-7,0-14,0-21,0C0,100.7,0,81.3,0,62z"/>
		<path class="st0" d="M6,0c3.4,6.2,6.9,12.3,10.1,18.6c1.4,2.7,2.2,5.6,2.2,8.8c-1.3-2.7-2.6-5.3-4-8.2c-2.1,0-4.5,0-7.6,0
			c1.8,3.4,3.4,6.3,5.2,9.5c-2.7,0.3-5.1,0.5-8,0.8C2.6,35.9,1.3,42.4,0,49C0,32.7,0,16.3,0,0C2,0,4,0,6,0z"/>
		<path class="st0" d="M28,120c0.5-6.6,1.1-13.2,1.6-19.7c0.4-0.1,0.8-0.1,1.2-0.2c0.6,4.4,1.1,8.8,1.7,13.6
			c2.8,0.5,5.8,1.3,7.4-2.7c0,3,0,6,0,9C36,120,32,120,28,120z"/>
		<path class="st0" d="M13.4,29.8c2.9,11,5.8,22,8.7,32.9c-0.7,0.2-1.4,0.5-2.1,0.7c-2-4.8-4-9.6-5.9-14.4c-1-2.7-1.4-6-6-5
			c1.1-4.9,2.2-9.4,3.2-13.9C11.9,30,12.6,29.9,13.4,29.8z"/>
		<path class="st0" d="M28.6,92c-0.8-1.5-1.7-3.1-2.5-4.6c0.4,0,0.8,0.1,1.2,0.1c0-8.1,0-16.2,0-24.4c0.5,0,1,0,1.5,0
			c3.4,9.4,2.5,19,1.3,28.6C29.6,91.8,29.1,91.9,28.6,92z"/>
		<path class="st0" d="M8.8,54.9c2.2,4.7,4.3,9.5,6.5,14.3C8.5,70.7,8,70.3,8,64.1c0-3,0-5.9,0-8.9C8.3,55.1,8.5,55,8.8,54.9z"/>
	</g>
</g>
</svg>
