<?xml version="1.0" encoding="utf-8"?>
<!-- Generator: Adobe Illustrator 28.0.0, SVG Export Plug-In . SVG Version: 6.00 Build 0)  -->
<svg version="1.1" id="Layer_1" xmlns="http://www.w3.org/2000/svg" xmlns:xlink="http://www.w3.org/1999/xlink" x="0px" y="0px"
	 viewBox="0 0 40 120" style="enable-background:new 0 0 40 120;" xml:space="preserve">
<style type="text/css">
	.st0{fill:#FFFFFF;}
</style>
<g>
	<g>
		<path d="M26,0c2.7,0,5.3,0,8,0c-2.7,4.5-5.7,9-8,13.7c-2.1,4.2-3.6,8.7-5.3,13.1c0.4,0.2,0.8,0.3,1.2,0.5c1.3-2.7,2.6-5.5,3.8-8
			c2.5,0,4.8,0,7.6,0c-1.8,3.4-3.3,6.4-5,9.5c2.8,0.3,5.1,0.5,7.8,0.7c0.7,3.2,1.4,6.5,2.1,9.8c0.7,3.3,1.3,6.5,1.9,9.8
			c0,4.3,0,8.7,0,13c-0.3,0.5-0.8,1-0.9,1.5c-1,6.3-1.8,12.6-3.1,18.8c-1.7,7.9-4,15.7-5.8,23.7c-0.4,1.7,0.6,4.4-0.3,5.2
			c-1.1,1-3.5,0.6-7.1,1c2-11.2,3.8-21.3,5.6-31.5c-2.7,5-5.2,10-7.1,15.3c-0.8,2.2,0.4,6.5-0.7,7.1c-3.9,2-2.3,5-2.4,7.6
			c-0.1,3.1,0.6,6.2,0.9,9.3c-2.3,0-4.7,0-7,0c-0.5-6.6-1.1-13.2-1.6-19.8c-0.4,0-0.9-0.1-1.3-0.1c-0.5,4.5-1,9.1-1.6,13.9
			c-2.9-0.1-6.2,1.2-7.5-3c0-1.7,0-3.3,0-5c1.7-5.6,5-11,2.2-17.4c-1.2-2.7-1.6-6.3-1-9.2C2.7,70.7,4.8,62,7,53.3
			c1.1-4.3,3.5-8.4,3.9-12.7C12,28,16.4,16.6,23,5.9C24.2,4,25,2,26,0z M28.7,30.1c-0.7-0.1-1.4-0.2-2.1-0.2
			c-2.9,11-5.8,22-8.7,32.9c0.7,0.2,1.3,0.4,2,0.7c2-4.5,4.5-8.9,5.9-13.6c1-3.6,1.9-6.4,6.2-6.3C30.8,38.8,29.8,34.4,28.7,30.1z
			 M13.9,87.4c-0.4-0.1-0.8-0.2-1.2-0.4c0-8,0-16,0-24c-0.5,0-1.1,0-1.6,0c-3,9.5-3,19.1-0.5,30.3C12.2,90.5,13,88.9,13.9,87.4z
			 M32,55c-0.2-0.1-0.5-0.1-0.7-0.2c-2.2,4.8-4.4,9.6-6.7,14.7c7.4,0.9,7.4,0.9,7.4-5.7C32,60.9,32,57.9,32,55z"/>
		<path class="st0" d="M26,0c-1,2-1.8,4-3,5.9C16.4,16.6,12,28,10.8,40.6C10.4,44.9,8,49,7,53.3C4.8,62,2.7,70.7,1.1,79.4
			c-0.5,2.9-0.1,6.5,1,9.2C5,95,1.7,100.4,0,106C0,70.7,0,35.3,0,0C8.7,0,17.3,0,26,0z"/>
		<path class="st0" d="M19,120c-0.3-3.1-1-6.2-0.9-9.3c0.1-2.6-1.5-5.6,2.4-7.6c1.1-0.5-0.1-4.9,0.7-7.1c1.9-5.3,4.4-10.4,7.1-15.3
			c-1.8,10.1-3.6,20.3-5.6,31.5c3.5-0.4,6,0.1,7.1-1c0.9-0.9-0.1-3.5,0.3-5.2c1.9-7.9,4.1-15.7,5.8-23.7c1.3-6.2,2.1-12.5,3.1-18.8
			c0.1-0.5,0.6-1,0.9-1.5c0,19.3,0,38.7,0,58C33,120,26,120,19,120z"/>
		<path class="st0" d="M40,49c-0.6-3.3-1.3-6.5-1.9-9.8c-0.7-3.3-1.4-6.6-2.1-9.8c-2.7-0.2-4.9-0.4-7.8-0.7c1.7-3.2,3.2-6.2,5-9.5
			c-2.8,0-5.1,0-7.6,0c-1.2,2.5-2.5,5.3-3.8,8c-0.4-0.2-0.8-0.3-1.2-0.5c1.7-4.4,3.2-8.9,5.3-13.1C28.3,9,31.3,4.5,34,0c2,0,4,0,6,0
			C40,16.3,40,32.7,40,49z"/>
		<path class="st0" d="M0,111c1.3,4.2,4.6,2.8,7.5,3c0.6-4.8,1.1-9.3,1.6-13.9c0.4,0,0.9,0.1,1.3,0.1c0.5,6.6,1.1,13.2,1.6,19.8
			c-4,0-8,0-12,0C0,117,0,114,0,111z"/>
		<path class="st0" d="M28.7,30.1c1.1,4.4,2.1,8.7,3.3,13.5c-4.3-0.1-5.2,2.7-6.2,6.3c-1.3,4.7-3.9,9.1-5.9,13.6
			c-0.7-0.2-1.3-0.4-2-0.7c2.9-11,5.8-22,8.7-32.9C27.3,29.9,28,30,28.7,30.1z"/>
		<path class="st0" d="M13.9,87.4c-0.8,1.5-1.7,3.1-3.3,6c-2.5-11.1-2.5-20.7,0.5-30.3c0.5,0,1.1,0,1.6,0c0,8,0,16,0,24
			C13.1,87.1,13.5,87.3,13.9,87.4z"/>
		<path class="st0" d="M32,55c0,2.9,0,5.8,0,8.8c0,6.6-0.1,6.7-7.4,5.7c2.3-5,4.5-9.8,6.7-14.7C31.5,54.9,31.8,55,32,55z"/>
	</g>
</g>
</svg>
