<?xml version="1.0" encoding="utf-8"?>
<!-- Generator: Adobe Illustrator 28.0.0, SVG Export Plug-In . SVG Version: 6.00 Build 0)  -->
<svg version="1.1" id="Layer_1" xmlns="http://www.w3.org/2000/svg" xmlns:xlink="http://www.w3.org/1999/xlink" x="0px" y="0px"
	 viewBox="0 0 40 120" style="enable-background:new 0 0 40 120;" xml:space="preserve">
<style type="text/css">
	.st0{fill:#FFFFFF;}
</style>
<g>
	<g>
		<path d="M6,0c2.3,0,4.7,0,7,0c-0.4,1.5-0.7,2.9-1,4.1c5.1-0.8,9.7-1.8,14.4-2c4.3-0.2,6.7,3,7.5,6.9c0.9,4.2-2,5.2-5.6,5.4
			c-0.3,0-0.5,0.8-1.1,1.7c3.5,0,6.6,0,9.7,0c0,0.2,0,0.4,0,0.7c-1.9,0.2-3.8,0.4-5.6,0.6c-1.2,5.7,3.1,6.1,6.1,7c0,2,0,3.7,0,5.7
			c-3,0-6,0-9,0c-0.3,1.4-0.5,2.6-0.6,2.8c4.4,1.8,8.3,3.5,12.3,5.1c0,0.7,0,1.3,0,2c-2-0.2-4.1-0.3-6.9-0.6
			c1.7,2.4,2.5,3.7,4.2,6.1c-4-0.8-6.9-1.3-10.8-2.1c1.1,1.1,1.7,2.3,2.5,2.5c7.9,1.9,9.2,4.7,5,11.5c3.6,2.5,3.8,5.4,0.7,8.5
			c-0.4,0.4-0.7,1.2-0.6,1.8c0.7,4.1,1.4,8.1,2.1,11.8c-5.7,1.7-11.3,3.3-17,5c3.4,0,6.7-0.7,9.8-0.4c2,0.2,4.8,1.3,5.7,2.9
			c0.8,1.3-0.5,4-1.2,5.9c-0.4,1-2.1,2.1-1.9,2.7c2.3,6.2-2.4,8.1-5.5,9.7c2.7,1.3,5.7,2.5,8.5,4.2c0.6,0.4,0.8,3,0.2,3.6
			c-1.5,1.6-3.4,3-5.4,3.8C26,118.2,22.4,119,19,120c-0.7,0-1.3,0-2,0c-1.7-1.8-3.5-3.6-5.6-5.9c-5.4-0.3-8.2-3.3-7.4-8.8
			c0.2-1.6-0.5-3.8,0.3-4.9c1.4-2.1,3.4-4.2,5.6-5.2c1.3-0.6,3.5,1.2,5.3,1.8c-0.2,0.4-0.4,0.8-0.6,1.2c-0.8,0.1-1.6,0.3-2.4,0.4
			c0.3,1.6,0.5,3.1,0.9,5.5c2.9-4.6,6.8-5.3,11.5-3.2c-0.3-1.5-0.9-3.4-2-3.8c-1.7-0.6-3.7-0.2-5.6-0.2c3.1-1.3,5.9-2.5,8.7-3.7
			c-0.2-0.5-0.4-1-0.6-1.6c-4.5,0.4-9.1,0.9-14.1,1.3c0.3-2.4,0.5-4.2,0.7-5.8c-3.5,0.7-6.7,1.3-9.9,1.9c-0.1-0.3-0.2-0.7-0.4-1
			c2.4-2,4.8-4,8.1-6.7c-3.2-0.5-5.3-0.8-7.7-1.1c2.1-3,4-11.8,3.4-15.1c2.1-1.6,6.3,1.5,7.2-3c-3-0.6-5.8-1.1-9.1-1.8
			c3.4-1.4,7.5-1.2,6.4-6c-2.6,0-4.9,0-7.4,0c4.1-6.9,12-5.1,18-8.5c-1.6-1.1-2.7-1.9-4.1-2.8c-0.3,1.4-0.6,2.5-1.1,4.8
			c-5-2.3-9.3-4.4-13.7-6.5c0.1-0.3,0.1-0.6,0.2-1c3,0,6.1,0,9.1,0c0.1-0.5,0.2-1,0.4-1.5c-1.6-0.6-3.3-1.3-5.1-1.9
			c0.7-4.2,3.9-4.5,7.4-4.2c5.8,0.4,3.8,5.5,4.9,8.8c0.9,0.1,1.9,0.4,2.5,0.1c2.4-1.3,4.7-2.8,7.1-4.3c-2-0.9-4.1-1.7-6-2.7
			c-1.1-0.6-2-1.8-2.6-2.4c-4.8-1.1-9.4-2.1-15-3.4c2.3-2.8,4.1-4.9,5.7-6.8c-1.8-0.9-3.9-1.9-6-2.9c4.3-0.2,8.2,1.4,12.1,1.4
			c6.2-0.1,7.4,0.8,6.2,6.9c1.1-0.2,2.1-0.4,3.1-0.7c-0.9-3-1.8-5.9-2.6-8.8c-1.4-0.1-2.8,0.3-3.3-0.2c-2.3-2.8-4.1-2.1-6.7-0.2
			C11.8,18.6,9,18,7.3,17.3c-1.3-0.6-2-2.4-3.4-4.3c0.9-1.5,2.2-3.5,3.6-5.7c-0.9-0.2-2-0.4-3.1-0.6C4.9,4.3,5.5,2.2,6,0z
			 M29.5,62.3c0.2-0.2,0.5-0.4,0.7-0.6c-1.5-1.2-3-2.3-4.7-3.7c0.6-1.1,1.6-2.8,2.9-5.2c-3.6,1.5-6.5,2.7-10.3,4.3
			C22.1,59,25.8,60.6,29.5,62.3z M25.6,75.4c1.2-2.1,2.5-3.5,2.2-4c-0.9-1.6-2.5-2.9-3.7-4.3c-0.7,1-2.1,2.2-1.9,2.8
			C22.7,71.5,24,72.9,25.6,75.4z M16.7,74.2c-3,2.4-5.3,4.2-8.4,6.7c3.4,0,5.4,0,7.2,0C15.9,78.6,16.3,76.6,16.7,74.2z"/>
		<path class="st0" d="M6,0C5.5,2.2,4.9,4.3,4.3,6.7c1.2,0.2,2.2,0.4,3.1,0.6C6.1,9.5,4.9,11.5,3.9,13c1.4,1.9,2.1,3.7,3.4,4.3
			c1.7,0.7,4.4,1.3,5.6,0.5c2.6-2,4.4-2.6,6.7,0.2c0.4,0.5,1.9,0.2,3.3,0.2c0.9,2.9,1.7,5.9,2.6,8.8c-1,0.2-2,0.4-3.1,0.7
			c1.2-6,0-6.9-6.2-6.9c-3.9,0-7.9-1.5-12.1-1.4c2.1,1,4.2,2,6,2.9c-1.6,1.9-3.4,4-5.7,6.8c5.6,1.3,10.3,2.3,15,3.4
			c0.6,0.6,1.5,1.8,2.6,2.4c1.9,1.1,4,1.8,6,2.7c-2.3,1.4-4.6,3-7.1,4.3c-0.6,0.3-1.6,0-2.5-0.1c-1.1-3.3,0.9-8.4-4.9-8.8
			c-3.4-0.2-6.6,0.1-7.4,4.2c1.8,0.7,3.5,1.3,5.1,1.9c-0.1,0.5-0.2,1-0.4,1.5c-3,0-6.1,0-9.1,0c-0.1,0.3-0.1,0.6-0.2,1
			c4.4,2.1,8.7,4.1,13.7,6.5c0.5-2.3,0.8-3.4,1.1-4.8c1.4,0.9,2.5,1.7,4.1,2.8c-6,3.4-14,1.6-18,8.5c2.4,0,4.7,0,7.4,0
			c1.1,4.8-3.1,4.6-6.4,6c3.3,0.6,6.1,1.2,9.1,1.8c-0.8,4.6-5.1,1.4-7.2,3c0.6,3.3-1.3,12-3.4,15.1c2.3,0.3,4.4,0.6,7.7,1.1
			c-3.3,2.7-5.7,4.7-8.1,6.7c0.1,0.3,0.2,0.7,0.4,1c3.2-0.6,6.4-1.3,9.9-1.9c-0.2,1.6-0.4,3.4-0.7,5.8c5-0.5,9.6-0.9,14.1-1.3
			c0.2,0.5,0.4,1,0.6,1.6c-2.8,1.2-5.6,2.4-8.7,3.7c2,0,4-0.4,5.6,0.2c1.1,0.4,1.7,2.2,2,3.8c-4.7-2.2-8.6-1.4-11.5,3.2
			c-0.4-2.3-0.7-3.9-0.9-5.5c0.8-0.1,1.6-0.3,2.4-0.4c0.2-0.4,0.4-0.8,0.6-1.2c-1.8-0.7-4.1-2.4-5.3-1.8c-2.2,1-4.2,3.1-5.6,5.2
			c-0.8,1.2,0,3.3-0.3,4.9c-0.8,5.5,1.9,8.5,7.4,8.8c2.2,2.3,3.9,4.1,5.6,5.9c-5.7,0-11.3,0-17,0C0,80,0,40,0,0C2,0,4,0,6,0z"/>
		<path class="st0" d="M19,120c3.5-1,7-1.8,10.3-3.1c2-0.8,3.9-2.2,5.4-3.8c0.6-0.6,0.4-3.2-0.2-3.6c-2.7-1.7-5.8-2.9-8.5-4.2
			c3.1-1.6,7.7-3.4,5.5-9.7c-0.2-0.6,1.6-1.7,1.9-2.7c0.7-2,2-4.6,1.2-5.9c-0.9-1.6-3.6-2.7-5.7-2.9c-3.1-0.3-6.4,0.5-9.8,0.4
			c5.6-1.7,11.3-3.3,17-5c-0.7-3.8-1.4-7.8-2.1-11.8c-0.1-0.6,0.2-1.4,0.6-1.8c3.1-3.1,3-6-0.7-8.5c4.2-6.8,2.9-9.6-5-11.5
			c-0.8-0.2-1.4-1.4-2.5-2.5c3.9,0.8,6.8,1.3,10.8,2.1c-1.6-2.4-2.5-3.7-4.2-6.1c2.8,0.2,4.8,0.4,6.9,0.6c0,26.7,0,53.3,0,80
			C33,120,26,120,19,120z"/>
		<path class="st0" d="M40,38c-3.9-1.6-7.9-3.3-12.3-5.1c0-0.2,0.3-1.4,0.6-2.8c3,0,6,0,9,0c0-2,0-3.7,0-5.7c-3-1-7.3-1.3-6.1-7
			c1.8-0.2,3.7-0.4,5.6-0.6c0-0.2,0-0.4,0-0.7c-3.1,0-6.2,0-9.7,0c0.6-1,0.9-1.7,1.1-1.7c3.5-0.1,6.4-1.1,5.6-5.4
			c-0.8-3.9-3.2-7-7.5-6.9c-4.6,0.2-9.3,1.2-14.4,2c0.3-1.2,0.7-2.7,1-4.1c8.9,0,17.9,0,27,0C40,12.7,40,25.3,40,38z"/>
		<path class="st0" d="M29.5,62.3c-3.7-1.7-7.4-3.3-11.3-5.1c3.8-1.6,6.7-2.8,10.3-4.3c-1.4,2.4-2.3,4-2.9,5.2
			c1.7,1.3,3.2,2.5,4.7,3.7C30,61.9,29.7,62.1,29.5,62.3z"/>
		<path class="st0" d="M25.6,75.4c-1.6-2.4-2.9-3.8-3.4-5.5c-0.2-0.7,1.2-1.9,1.9-2.8c1.3,1.4,2.8,2.7,3.7,4.3
			C28.1,71.9,26.8,73.3,25.6,75.4z"/>
		<path class="st0" d="M16.7,74.2c-0.4,2.4-0.8,4.4-1.2,6.7c-1.9,0-3.8,0-7.2,0C11.4,78.4,13.7,76.6,16.7,74.2z"/>
	</g>
</g>
</svg>
