<?xml version="1.0" encoding="utf-8"?>
<!-- Generator: Adobe Illustrator 28.0.0, SVG Export Plug-In . SVG Version: 6.00 Build 0)  -->
<svg version="1.1" id="Layer_1" xmlns="http://www.w3.org/2000/svg" xmlns:xlink="http://www.w3.org/1999/xlink" x="0px" y="0px"
	 viewBox="0 0 80 40" style="enable-background:new 0 0 80 40;" xml:space="preserve">
<style type="text/css">
	.st0{fill:#FFFFFF;}
</style>
<g>
	<g>
		<path d="M28,0c1.7,0,3.3,0,5,0c1.3,0.5,2.9,0.6,3.8,1.5c2.9,2.7,5.6,1.8,8.8,0.6c4.7-1.8,9.3-1.8,13.2,2.1c1.8,1.8,3.9,3.3,5.8,5
			C69.5,13.8,76.5,15.8,80,22c0,0.7,0,1.3,0,2c-3.4,5.3-7.9,8.1-14.4,9.2c-9,1.5-17.7,4.4-26.6,6.8c-2.7,0-5.3,0-8,0
			C18.9,35.1,8.5,27.9,0,18c0-0.3,0-0.7,0-1c0.7-0.8,1.2-2,2.1-2.5C10.7,9.6,19.4,4.8,28,0z M66.3,25c-7.7-2.6-14.9-6.8-23.5-4.1
			c-3.1,1-6.8,0.8-10.1,0.4c-5-0.6-9.5,0-14.2,2.6c6.1,5,12.2,9.4,19.8,8C47.9,30.1,57,27.3,66.3,25z M54.4,12
			c-2.2-3.4-2.5-3.2-6.4-2.6C43.9,10,39.2,11,35.8,9.5c-5.7-2.5-9.1-0.1-12.7,4.1C33.5,13.1,43.9,12.6,54.4,12z"/>
		<path class="st0" d="M80,22c-3.5-6.2-10.5-8.2-15.4-12.8c-1.9-1.7-4-3.2-5.8-5c-3.9-3.9-8.5-3.9-13.2-2.1
			c-3.2,1.2-5.9,2.1-8.8-0.6c-0.9-0.9-2.5-1-3.8-1.5c15.7,0,31.3,0,47,0C80,7.3,80,14.7,80,22z"/>
		<path class="st0" d="M0,18c8.5,9.9,18.9,17.1,31,22c-10.3,0-20.7,0-31,0C0,32.7,0,25.3,0,18z"/>
		<path class="st0" d="M28,0C19.4,4.8,10.7,9.6,2.1,14.5C1.2,15,0.7,16.2,0,17C0,11.3,0,5.7,0,0C9.3,0,18.7,0,28,0z"/>
		<path class="st0" d="M39,40c8.9-2.3,17.6-5.3,26.6-6.8c6.5-1.1,11-3.9,14.4-9.2c0,5.3,0,10.7,0,16C66.3,40,52.7,40,39,40z"/>
		<path class="st0" d="M66.3,25c-9.3,2.3-18.5,5.1-27.8,6.8c-7.6,1.4-13.7-3-19.8-8c4.7-2.6,9.2-3.2,14.2-2.6
			c3.3,0.4,7,0.6,10.1-0.4C51.4,18.2,58.6,22.4,66.3,25z"/>
		<path class="st0" d="M54.4,12c-10.5,0.6-20.9,1.1-31.3,1.6c3.6-4.2,6.9-6.6,12.7-4.1C39.2,11,43.9,10,48,9.4
			C51.9,8.9,52.2,8.6,54.4,12z"/>
	</g>
</g>
</svg>
