<?xml version="1.0" encoding="utf-8"?>
<!-- Generator: Adobe Illustrator 28.0.0, SVG Export Plug-In . SVG Version: 6.00 Build 0)  -->
<svg version="1.1" id="Layer_1" xmlns="http://www.w3.org/2000/svg" xmlns:xlink="http://www.w3.org/1999/xlink" x="0px" y="0px"
	 viewBox="0 0 80 40" style="enable-background:new 0 0 80 40;" xml:space="preserve">
<style type="text/css">
	.st0{fill:#FFFFFF;}
</style>
<g>
	<g>
		<path d="M32,0c1.7,0,3.3,0,5,0c2.3,1.2,4.9,3.8,6.9,3.3C57.7,0.2,70.2,10.4,79,22.8c-4.9-0.5-6.8,2.6-9.1,6.1
			c-3.5,5.4-8.1,10-15.4,10.2c-2.2,0-4.3,0.6-6.5,1c-2.3,0-4.7,0-7,0c-1.3-0.3-2.7-0.9-4-1c-11.3-0.4-21.4-3.3-29-12.4
			c-1.4-1.7-4.1-2.4-6.3-3.7C9.6,12.8,19.3,4.5,32,0z M60.3,18.5c-0.4,6-3.4,9.6-8.6,10.1c-7.5,0.6-15.1,1-22.5,0.3
			c-6.4-0.6-6.6-1.8-5.2-8.6c0.2-1-0.2-2.1-0.2-2.8c-2.3,0.2-4.3,0.2-6.2,0.6c-1.5,0.3-2.9,1-4.3,1.6c0.6,1.3,1,2.7,1.8,3.7
			c6.4,7.5,13.8,12.6,24.2,14c8.9,1.2,15.3-0.4,20.2-8c2-3,4.7-5.5,7.2-8.3C64.7,20.3,62.9,19.6,60.3,18.5z M61.4,15.1
			c0.2-0.3,0.3-0.5,0.5-0.8c-2.1-1.8-4.4-3.4-6.2-5.4C51.9,4.8,48.1,4.4,43,7.1c-1.8,1-5-0.6-7.6-1.2c-1.4-0.3-3.2-2-3.8-1.6
			c-4.6,3-8.9,6.4-13.3,9.7c1.6,0.9,2.6,0.9,3.6,0.9c6.3,0.2,12.7-2.8,18.9,0.7c0.7,0.4,2.6-0.6,3.4-1.5c3.2-3.3,7.1-2.5,10.8-1.7
			C57.3,13,59.3,14.2,61.4,15.1z M33.5,16.3c-0.6,3.3-1.2,5.5-1.4,7.8c-0.1,0.9,0.8,2.2,1.6,2.7c0.5,0.3,2.4-0.4,2.5-0.9
			c0.7-2.3,1.2-4.7,1.1-7C37.3,18,35.2,17.4,33.5,16.3z M45.6,25.6c6.1-1.8,3.9-5.9,4.3-9.2c-0.7-0.2-1.4-0.3-2.1-0.5
			C47.1,19.1,46.3,22.4,45.6,25.6z"/>
		<path class="st0" d="M32,0C19.3,4.5,9.6,12.8,1.7,23c2.2,1.2,4.9,1.9,6.3,3.7c7.6,9.1,17.7,12,29,12.4c1.3,0,2.7,0.6,4,1
			c-13.7,0-27.3,0-41,0C0,26.7,0,13.3,0,0C10.7,0,21.3,0,32,0z"/>
		<path class="st0" d="M48,40c2.2-0.3,4.3-0.9,6.5-1c7.3-0.2,11.8-4.7,15.4-10.2c2.3-3.5,4.2-6.6,9.1-6.1
			C70.2,10.4,57.7,0.2,43.9,3.3C41.9,3.8,39.3,1.2,37,0c14.3,0,28.7,0,43,0c0,13.3,0,26.7,0,40C69.3,40,58.7,40,48,40z"/>
		<path class="st0" d="M60.3,18.5c2.6,1.1,4.4,1.8,6.2,2.6c-2.4,2.8-5.2,5.3-7.2,8.3c-4.9,7.6-11.3,9.2-20.2,8
			C28.7,36,21.3,30.9,15,23.4c-0.9-1-1.2-2.5-1.8-3.7c1.4-0.5,2.8-1.3,4.3-1.6c1.9-0.4,3.8-0.4,6.2-0.6c0.1,0.7,0.5,1.8,0.2,2.8
			c-1.4,6.8-1.2,8,5.2,8.6c7.4,0.7,15.1,0.3,22.5-0.3C56.8,28.1,59.9,24.5,60.3,18.5z"/>
		<path class="st0" d="M61.4,15.1c-2.1-0.9-4.2-2.1-6.4-2.5c-3.7-0.7-7.6-1.6-10.8,1.7c-0.8,0.9-2.8,1.9-3.4,1.5
			c-6.2-3.5-12.6-0.6-18.9-0.7c-1,0-2,0-3.6-0.9c4.4-3.3,8.8-6.7,13.3-9.7c0.6-0.4,2.5,1.2,3.8,1.6C38,6.5,41.3,8.1,43,7.1
			c5-2.8,8.8-2.4,12.7,1.8c1.9,2,4.1,3.6,6.2,5.4C61.8,14.5,61.6,14.8,61.4,15.1z"/>
		<path class="st0" d="M33.5,16.3c1.7,1.1,3.8,1.8,3.9,2.5c0.1,2.3-0.5,4.7-1.1,7c-0.2,0.6-2,1.2-2.5,0.9c-0.8-0.5-1.6-1.8-1.6-2.7
			C32.2,21.8,32.9,19.6,33.5,16.3z"/>
		<path class="st0" d="M45.6,25.6c0.7-3.2,1.5-6.5,2.2-9.7c0.7,0.2,1.4,0.3,2.1,0.5C49.5,19.7,51.7,23.8,45.6,25.6z"/>
	</g>
</g>
</svg>
