<?xml version="1.0" encoding="utf-8"?>
<!-- Generator: Adobe Illustrator 28.0.0, SVG Export Plug-In . SVG Version: 6.00 Build 0)  -->
<svg version="1.1" id="Layer_1" xmlns="http://www.w3.org/2000/svg" xmlns:xlink="http://www.w3.org/1999/xlink" x="0px" y="0px"
	 viewBox="0 0 80 40" style="enable-background:new 0 0 80 40;" xml:space="preserve">
<style type="text/css">
	.st0{fill:#FFFFFF;}
</style>
<g>
	<g>
		<path class="st0" d="M0,9c0-3,0-6,0-9c26.7,0,53.3,0,80,0c0,1.7,0,3.3,0,5c-4.7-6.1-6.8-5.8-10.2,1.3c-0.3,0.6-0.7,1.1-1.2,1.6
			c-4.4,4.1-9.1,8-13.2,12.3c-8.1,8.5-17.9,7.9-27.9,5.7c-2.3-0.5-4.7-2.5-6.2-4.4C16.9,15.8,13,9.7,9,3.8C7,1,3.6,1.2,2,4.3
			C1.2,5.8,0.6,7.4,0,9z"/>
		<path d="M0,9c0.6-1.6,1.2-3.2,2-4.7C3.6,1.2,7,1,9,3.8c4.1,5.9,8,11.9,12.3,17.6c1.5,2,3.9,3.9,6.2,4.4c10,2.2,19.9,2.8,27.9-5.7
			c4.1-4.4,8.8-8.2,13.2-12.3c0.5-0.4,0.9-1,1.2-1.6C73.2-0.9,75.3-1.1,80,5c0,0.7,0,1.3,0,2c-2.6,4.4-4.6,9.3-7.9,13.1
			c-3.1,3.7-7.7,6.1-11.2,9.6c-13.7,13.5-38,13.9-50.2-5.2C7.5,19.4,3.6,14.8,0,10C0,9.7,0,9.3,0,9z"/>
		<path class="st0" d="M0,10c3.6,4.8,7.5,9.4,10.7,14.5C23,43.6,47.2,43.2,60.9,29.7c3.5-3.4,8.1-5.9,11.2-9.6
			c3.2-3.9,5.3-8.7,7.9-13.1c0,11,0,22,0,33c-26.5,0-53.1,0-80,0C0,30,0,20,0,10z"/>
	</g>
</g>
</svg>
