<?xml version="1.0" encoding="utf-8"?>
<!-- Generator: Adobe Illustrator 28.0.0, SVG Export Plug-In . SVG Version: 6.00 Build 0)  -->
<svg version="1.1" id="Layer_1" xmlns="http://www.w3.org/2000/svg" xmlns:xlink="http://www.w3.org/1999/xlink" x="0px" y="0px"
	 viewBox="0 0 80 40" style="enable-background:new 0 0 80 40;" xml:space="preserve">
<style type="text/css">
	.st0{fill:#FFFFFF;}
</style>
<g>
	<g>
		<path class="st0" d="M80,21c0,6.3,0,12.7,0,19c-18.7,0-37.3,0-56,0c-1.6-1.3-3.1-2.9-4.8-3.9C10.5,30.9,7.8,17,14.9,11.7
			C27.7,2.3,46-2,61.9,8.4c7,4.5,8.9,10.7,5.6,18.6c-1.6,3.9-3.4,7.7-5.2,12c1.9,0,3.4-0.2,4.8,0c4.3,0.8,6.6-1.1,8-5.1
			C76.6,29.6,78.3,25.3,80,21z M53.3,15c-4.1-1-7.3,0.9-8.2,5.8c-1,5.1,5.1,8.9,11.5,6.9c3.7-1.2,8.1-2.9,7.3-7.8
			c-0.7-4.5-4.8-5.1-8.8-4.9C54.7,15,54.4,15,53.3,15z M19.8,16c-0.1,0.7-0.4,1.3-0.3,1.9c0.5,2.9,0.5,8,1.7,8.3
			c4,1,8.4,0.4,12.7,0.2c0.3,0,0.8-1,1-1.6c1.3-4.3-1.9-8.7-6.5-8.8C25.6,16,22.8,16,19.8,16z"/>
		<path d="M80,21c-1.7,4.3-3.4,8.6-5,13c-1.4,3.9-3.7,5.9-8,5.1c-1.4-0.3-2.9,0-4.8,0c1.9-4.3,3.6-8.1,5.2-12
			c3.3-7.9,1.3-14.1-5.6-18.6C46-2,27.7,2.3,14.9,11.7c-7.1,5.3-4.4,19.2,4.2,24.3c1.8,1.1,3.2,2.6,4.8,3.9c-3.3,0-6.7,0-10,0
			C8,36.3,2.4,32.1,0,25c0-1.3,0-2.7,0-4C2.8,10.7,10.2,5.8,20.2,3.9C26.1,2.7,32.1,1.3,38,0c4,0,8,0,12,0c1.3,0.3,2.7,0.7,4,1
			c10.6,2.7,21.3,5.2,26,17C80,19,80,20,80,21z"/>
		<path class="st0" d="M38,0c-5.9,1.3-11.9,2.7-17.8,3.9C10.2,5.8,2.8,10.7,0,21C0,14.1,0,7.1,0,0C12.7,0,25.3,0,38,0z"/>
		<path class="st0" d="M80,18C75.3,6.2,64.6,3.7,54,1c-1.3-0.3-2.7-0.7-4-1c10,0,20,0,30,0C80,6,80,12,80,18z"/>
		<path class="st0" d="M0,25c2.4,7.1,8,11.3,14,15c-4.7,0-9.3,0-14,0C0,35,0,30,0,25z"/>
		<path d="M53.3,15c1.1,0,1.4,0,1.8,0c3.9-0.1,8.1,0.4,8.8,4.9c0.8,4.9-3.6,6.6-7.3,7.8c-6.4,2-12.5-1.8-11.5-6.9
			C46,15.9,49.2,14,53.3,15z"/>
		<path d="M19.8,16c2.9,0,5.8,0,8.6,0c4.5,0.1,7.8,4.5,6.5,8.8c-0.2,0.6-0.6,1.6-1,1.6c-4.3,0.1-8.7,0.8-12.7-0.2
			c-1.2-0.3-1.2-5.4-1.7-8.3C19.5,17.3,19.7,16.7,19.8,16z"/>
	</g>
</g>
</svg>
