<?xml version="1.0" encoding="utf-8"?>
<!-- Generator: Adobe Illustrator 28.0.0, SVG Export Plug-In . SVG Version: 6.00 Build 0)  -->
<svg version="1.1" id="Layer_1" xmlns="http://www.w3.org/2000/svg" xmlns:xlink="http://www.w3.org/1999/xlink" x="0px" y="0px"
	 viewBox="0 0 80 80" style="enable-background:new 0 0 80 80;" xml:space="preserve">
<style type="text/css">
	.st0{fill:#FFFFFF;}
</style>
<g>
	<g>
		<path class="st0" d="M71,80c-23.5,0-47.1,0-71,0c0-8.7,0-17.3,0-26c4.1-1.9,8.2-4.1,12.4-5.7c13.5-5.1,26.9-10.8,41.7-11.4
			c7.7-0.3,12.4,4,13,11.7c0.9,11.8-5.6,19-14.7,25.1C58.7,75.9,64.8,77.9,71,80z M15.4,50c-0.1-0.2-0.1-0.4-0.2-0.6
			c-2.6,0.8-5.3,1.4-7.8,2.5c-5.3,2.5-5.8,6.5-1.1,9.8c2.5,1.8,5.7,3.2,8.8,3.7c5.3,0.8,12.8-3.4,12.9-6.3c0.2-4.7-4.6-8.9-11.1-9.1
			C16.4,50,15.9,50,15.4,50z M37,59.3c6.8,7.3,13.3,8.4,21.4,3.9c4.6-2.6,4.9-6.4,0.6-9.6C52,48.4,41,51.1,37,59.3z"/>
		<path class="st0" d="M33,0c15.7,0,31.3,0,47,0c0,17,0,34,0,51c-0.3-0.7-0.8-1.3-1-2c-2.2-8.8-9.7-17.2-17.4-17.1
			c-4.3,0-8.3,0.5-12.7-2.5c-4-2.8-8.1-5-9.8-9.6C36.7,13.4,35,6.6,33,0z"/>
		<path class="st0" d="M0,51C0,34,0,17,0,0c10,0,20,0,30,0c0,7.2,0.1,14.3,0,21.5c-0.1,4.6-0.4,9.2-0.7,14.3c0.2,0,1.6,0.2,4,0.6
			c-3.5,1.4-6.3,2.3-8.9,3.5C16.2,43.6,8.1,47.3,0,51z"/>
		<path d="M0,51c8.1-3.7,16.2-7.4,24.3-11c2.6-1.2,5.4-2.1,8.9-3.5c-2.4-0.4-3.7-0.6-4-0.6c0.3-5.1,0.6-9.7,0.7-14.3
			c0.1-7.2,0-14.3,0-21.5c1,0,2,0,3,0c2,6.6,3.7,13.4,6.1,19.8c1.7,4.6,5.8,6.8,9.8,9.6c4.4,3,8.4,2.5,12.7,2.5
			C69.3,31.8,76.8,40.2,79,49c0.2,0.7,0.6,1.3,1,2c0,3.3,0,6.7,0,10c-2.3,6.3-4.7,12.7-7,19c-0.7,0-1.3,0-2,0
			c-6.2-2.1-12.3-4.1-18.7-6.3c9.2-6.2,15.7-13.3,14.7-25.1c-0.6-7.7-5.2-12-13-11.7c-14.8,0.6-28.2,6.3-41.7,11.4
			C8.2,49.9,4.1,52.1,0,54C0,53,0,52,0,51z"/>
		<path class="st0" d="M73,80c2.3-6.3,4.7-12.7,7-19c0,6.3,0,12.7,0,19C77.7,80,75.3,80,73,80z"/>
		<path d="M15.4,50c0.5,0,1,0,1.5,0c6.5,0.3,11.4,4.4,11.1,9.1c-0.1,2.9-7.6,7.1-12.9,6.3c-3.1-0.5-6.2-1.9-8.8-3.7
			c-4.7-3.3-4.2-7.3,1.1-9.8c2.5-1.1,5.2-1.7,7.8-2.5C15.3,49.6,15.4,49.8,15.4,50z"/>
		<path d="M37,59.3c4-8.2,15-10.9,22.1-5.7c4.3,3.2,4,7-0.6,9.6C50.3,67.7,43.8,66.6,37,59.3z"/>
	</g>
</g>
</svg>
