<?xml version="1.0" encoding="utf-8"?>
<!-- Generator: Adobe Illustrator 28.0.0, SVG Export Plug-In . SVG Version: 6.00 Build 0)  -->
<svg version="1.1" id="Layer_1" xmlns="http://www.w3.org/2000/svg" xmlns:xlink="http://www.w3.org/1999/xlink" x="0px" y="0px"
	 viewBox="0 0 80 40" style="enable-background:new 0 0 80 40;" xml:space="preserve">
<style type="text/css">
	.st0{fill:#FFFFFF;}
</style>
<g>
	<g>
		<path d="M22,0c1.3,0,2.7,0,4,0c5.3,4.2,5.5,15.6,0.4,21.1c-3.1,3.3-6.5,5.4-11,1.9c-0.8-0.7-2.6-0.1-4-0.1
			c-0.1,0.4-0.1,0.8-0.2,1.2c7,3,14,6,21,8.9c1.6,0.7,3.6,1.2,5.2,0.9c7.7-1.6,15.4-3.5,23-5.3c-2.1-2-4.6-2.3-5.6-3.6
			c-4.2-5.6-7.3-11.6-6.8-18.9C48.4,1.4,51.6,1,55.4,1c4.3,0,4.1,2.6,3.6,5.6c-0.1,1,0.1,2,0,3c-0.5,4.7,1.1,6.9,6.4,6.6
			c5.6-0.3,11,1,14.7,5.9c0,0.3,0,0.7,0,1c-2.3,4.4-6.2,6.6-10.7,8.1C60.5,33.9,51.8,37,43,40c-3.3,0-6.7,0-10,0
			c-3.8-1.3-7.6-2.5-11.2-4s-6.9-3.8-10.6-4.9C6.4,29.6,2.8,27,0,23c0-0.3,0-0.7,0-1c6-2.6,12.1-5.1,18.1-7.7
			c0.4,0.4,0.9,0.8,1.3,1.2c-0.1-3.1,0.3-6.4-0.6-9.2C17.8,2.7,19.1,1.2,22,0z"/>
		<path class="st0" d="M80,22c-3.7-4.9-9.1-6.2-14.7-5.9c-5.3,0.3-6.8-1.9-6.4-6.6c0.1-1-0.1-2,0-3c0.5-3,0.6-5.6-3.6-5.6
			c-3.8,0-7,0.4-7.4,5.1c-0.5,7.3,2.6,13.4,6.8,18.9c1,1.3,3.4,1.6,5.6,3.6c-7.7,1.8-15.3,3.7-23,5.3c-1.6,0.3-3.6-0.2-5.2-0.9
			c-7-2.9-14-5.9-21-8.9c0.1-0.4,0.1-0.8,0.2-1.2c1.4,0,3.2-0.6,4,0.1c4.5,3.5,7.9,1.5,11-1.9c5.2-5.4,5-16.8-0.3-21c18,0,36,0,54,0
			C80,7.3,80,14.7,80,22z"/>
		<path class="st0" d="M22,0c-2.9,1.2-4.2,2.7-3.2,6.3c0.9,2.9,0.4,6.1,0.6,9.2c-0.4-0.4-0.9-0.8-1.3-1.2C12.1,16.9,6,19.4,0,22
			C0,14.7,0,7.3,0,0C7.3,0,14.7,0,22,0z"/>
		<path class="st0" d="M43,40c8.8-3,17.5-6.1,26.3-8.9c4.5-1.5,8.4-3.7,10.7-8.1c0,5.7,0,11.3,0,17C67.7,40,55.3,40,43,40z"/>
		<path class="st0" d="M0,23c2.8,4,6.4,6.6,11.2,8.1c3.7,1.1,7,3.4,10.6,4.9c3.7,1.5,7.5,2.7,11.2,4c-10.9,0-21.8,0-33,0
			C0,34.3,0,28.7,0,23z"/>
	</g>
</g>
</svg>
